<svg width="60" height="60" viewBox="0 0 60 60" fill="none" xmlns="http://www.w3.org/2000/svg">
<path d="M59 48H55V40C55 39.4478 54.5522 39 54 39C53.4478 39 53 39.4478 53 40V48H31V26H38V33C38 33.5522 38.4478 34 39 34H45C45.5522 34 46 33.5522 46 33V26H53V36C53 36.5522 53.4478 37 54 37C54.5522 37 55 36.5522 55 36V25C55 24.4478 54.5522 24 54 24H43V1C43 0.44775 42.5522 0 42 0H18C17.4478 0 17 0.44775 17 1V10C17 10.5522 17.4478 11 18 11C18.5522 11 19 10.5522 19 10V2H26V9C26 9.55225 26.4478 10 27 10H33C33.5522 10 34 9.55225 34 9V2H41V24H19V14C19 13.4478 18.5522 13 18 13C17.4478 13 17 13.4478 17 14V24H12C11.4478 24 11 24.4478 11 25C11 25.5522 11.4478 26 12 26H14V33C14 33.5522 14.4478 34 15 34H21C21.5522 34 22 33.5522 22 33V26H29V48H7V26H8C8.55225 26 9 25.5522 9 25C9 24.4478 8.55225 24 8 24H6C5.44775 24 5 24.4478 5 25V48H1C0.44775 48 0 48.4478 0 49V59C0 59.5522 0.44775 60 1 60H7C7.55225 60 8 59.5522 8 59V54H26V59C26 59.5522 26.4478 60 27 60H33C33.5522 60 34 59.5522 34 59V54H41C41.5522 54 42 53.5522 42 53C42 52.4478 41.5522 52 41 52H2V50H58V52H50C49.4478 52 49 52.4478 49 53C49 53.5522 49.4478 54 50 54H52V59C52 59.5522 52.4478 60 53 60H59C59.5522 60 60 59.5522 60 59V49C60 48.4478 59.5522 48 59 48ZM32 8H28V2H32V8ZM40 26H42H44V32H40V26ZM20 32H16V26H20V32ZM28 54H32V58H28V54ZM6 54V58H2V54H6ZM58 58H54V54H58V58Z" fill="#0088CC"/>
<path d="M38 43C37.4477 43 37 43.4477 37 44V45C37 45.5522 37.4477 46 38 46C38.5523 46 39 45.5522 39 45V44C39 43.4477 38.5523 43 38 43Z" fill="#0088CC"/>
<path d="M34 43C33.4477 43 33 43.4477 33 44V45C33 45.5522 33.4477 46 34 46C34.5523 46 35 45.5522 35 45V44C35 43.4477 34.5523 43 34 43Z" fill="#0088CC"/>
<path d="M14 43C13.4477 43 13 43.4477 13 44V45C13 45.5522 13.4477 46 14 46C14.5523 46 15 45.5522 15 45V44C15 43.4477 14.5523 43 14 43Z" fill="#0088CC"/>
<path d="M10 43C9.44775 43 9 43.4477 9 44V45C9 45.5522 9.44775 46 10 46C10.5523 46 11 45.5522 11 45V44C11 43.4477 10.5523 43 10 43Z" fill="#0088CC"/>
<path d="M26 19C25.4477 19 25 19.4477 25 20V21C25 21.5522 25.4477 22 26 22C26.5523 22 27 21.5522 27 21V20C27 19.4477 26.5523 19 26 19Z" fill="#0088CC"/>
<path d="M22 19C21.4477 19 21 19.4477 21 20V21C21 21.5522 21.4477 22 22 22C22.5523 22 23 21.5522 23 21V20C23 19.4477 22.5523 19 22 19Z" fill="#0088CC"/>
<path d="M46 52H45C44.4477 52 44 52.4477 44 53C44 53.5523 44.4477 54 45 54H46C46.5522 54 47 53.5523 47 53C47 52.4477 46.5522 52 46 52Z" fill="#0088CC"/>
</svg>
