<svg width="60" height="60" viewBox="0 0 60 60" fill="none" xmlns="http://www.w3.org/2000/svg">
<g clip-path="url(#clip0)">
<path d="M56 0H36C33.7909 0 32 1.79086 32 4V16C32 18.2091 33.7909 20 36 20H36.617L36.008 24.876C35.9567 25.2876 36.1648 25.6881 36.531 25.8827C36.8972 26.0774 37.3456 26.0258 37.658 25.753L44.236 20H56C58.2091 20 60 18.2091 60 16V4C60 1.79086 58.2091 0 56 0ZM58 16C58 17.1046 57.1046 18 56 18H43.86C43.618 18 43.3842 18.0878 43.202 18.247L38.318 22.519L38.742 19.124C38.7776 18.8394 38.6892 18.5533 38.4995 18.3383C38.3097 18.1233 38.0368 18.0001 37.75 18H36C34.8954 18 34 17.1046 34 16V4C34 2.89543 34.8954 2 36 2H56C57.1046 2 58 2.89543 58 4V16Z" fill="#0088CC"/>
<path d="M39 6.99994C37.3431 6.99994 36 8.34308 36 9.99994C36 11.6568 37.3431 12.9999 39 12.9999C40.6569 12.9999 42 11.6568 42 9.99994C42 8.34308 40.6569 6.99994 39 6.99994ZM39 10.9999C38.4477 10.9999 38 10.5522 38 9.99994C38 9.44765 38.4477 8.99994 39 8.99994C39.5523 8.99994 40 9.44765 40 9.99994C40 10.5522 39.5523 10.9999 39 10.9999Z" fill="#0088CC"/>
<path d="M46 6.99994C44.3431 6.99994 43 8.34308 43 9.99994C43 11.6568 44.3431 12.9999 46 12.9999C47.6568 12.9999 49 11.6568 49 9.99994C49 8.34308 47.6568 6.99994 46 6.99994ZM46 10.9999C45.4477 10.9999 45 10.5522 45 9.99994C45 9.44765 45.4477 8.99994 46 8.99994C46.5523 8.99994 47 9.44765 47 9.99994C47 10.5522 46.5523 10.9999 46 10.9999Z" fill="#0088CC"/>
<path d="M53 6.99994C51.3431 6.99994 50 8.34308 50 9.99994C50 11.6568 51.3431 12.9999 53 12.9999C54.6569 12.9999 56 11.6568 56 9.99994C56 8.34308 54.6569 6.99994 53 6.99994ZM53 10.9999C52.4477 10.9999 52 10.5522 52 9.99994C52 9.44765 52.4477 8.99994 53 8.99994C53.5523 8.99994 54 9.44765 54 9.99994C54 10.5522 53.5523 10.9999 53 10.9999Z" fill="#0088CC"/>
<path d="M56 35H47.236L40.658 29.247C40.3456 28.9742 39.8972 28.9226 39.531 29.1172C39.1648 29.3119 38.9567 29.7124 39.008 30.124L39.617 35H39C36.7909 35 35 36.7908 35 39V48C35 50.2091 36.7909 52 39 52H56C58.2091 52 60 50.2091 60 48V39C60 36.7908 58.2091 35 56 35ZM58 48C58 49.1045 57.1046 50 56 50H39C37.8954 50 37 49.1045 37 48V39C37 37.8954 37.8954 37 39 37H40.75C41.0368 36.9999 41.3097 36.8767 41.4995 36.6617C41.6892 36.4467 41.7776 36.1605 41.742 35.876L41.318 32.481L46.2 36.753C46.3827 36.9126 46.6173 37.0004 46.86 37H56C57.1046 37 58 37.8954 58 39V48Z" fill="#0088CC"/>
<path d="M4 35.0001H6.624C7.29391 36.1556 8.15127 37.1918 9.161 38.0661C4.12309 40.8953 1.0032 46.2221 1 52.0001V57.0001C1 58.657 2.34315 60.0001 4 60.0001H30C31.6569 60.0001 33 58.657 33 57.0001V52.0001C32.9889 46.2243 29.8738 40.9004 24.844 38.0611C25.8514 37.1877 26.7069 36.1533 27.376 35.0001H30C32.2091 35.0001 34 33.2092 34 31.0001V27.0001C33.9959 25.5923 33.2498 24.291 32.037 23.5761C29.7576 17.2317 23.7415 13.0004 17 13.0004C10.2585 13.0004 4.24236 17.2317 1.963 23.5761C0.750176 24.291 0.0041073 25.5923 0 27.0001V31.0001C0 33.2092 1.79086 35.0001 4 35.0001ZM4 33.0001C2.89543 33.0001 2 32.1047 2 31.0001V27.0001C2 25.8955 2.89543 25.0001 4 25.0001H5.7C4.7667 27.5851 4.7667 30.4151 5.7 33.0001H4ZM7 29.0001C6.99866 25.0688 9.30091 21.5014 12.8837 19.8832C16.4666 18.2649 20.6652 18.8961 23.6138 21.4962C26.5625 24.0963 27.7142 28.1829 26.557 31.9401C24.695 32.547 22.7556 32.8838 20.798 32.9401C20.3582 31.7756 19.2448 31.0036 18 31.0001H16C14.3431 31.0001 13 32.3433 13 34.0001C13 35.657 14.3431 37.0001 16 37.0001H18C19.2888 36.9962 20.4303 36.1674 20.833 34.9431C22.3835 34.881 23.9253 34.6802 25.44 34.3431C23.0653 38.1086 18.4856 39.8484 14.2097 38.6095C9.93386 37.3706 6.99373 33.4519 7 29.0001ZM19 34.0001C19 34.5524 18.5523 35.0001 18 35.0001H16C15.4477 35.0001 15 34.5524 15 34.0001C15 33.4478 15.4477 33.0001 16 33.0001H18C18.5523 33.0001 19 33.4478 19 34.0001ZM26.894 42.1081C29.5321 44.7226 31.0112 48.286 31 52.0001V57.0001C31 57.5524 30.5523 58.0001 30 58.0001H25V52.0001C25 51.4478 24.5523 51.0001 24 51.0001C23.4477 51.0001 23 51.4478 23 52.0001V58.0001H11V52.0001C11 51.4478 10.5523 51.0001 10 51.0001C9.44772 51.0001 9 51.4478 9 52.0001V58.0001H4C3.44772 58.0001 3 57.5524 3 57.0001V52.0001C3.0046 46.6021 6.11222 41.6876 10.987 39.3691C14.6998 41.5421 19.2963 41.5421 23.009 39.3691C24.4538 40.0486 25.7686 40.9756 26.894 42.1081ZM32 31.0001C32 32.1047 31.1046 33.0001 30 33.0001H28.3C29.2333 30.4151 29.2333 27.5851 28.3 25.0001H30C31.1046 25.0001 32 25.8955 32 27.0001V31.0001ZM17 15.0001C22.4045 14.9976 27.3253 18.1135 29.634 23.0001H27.376C25.2395 19.2882 21.2829 17.0003 17 17.0003C12.7171 17.0003 8.76051 19.2882 6.624 23.0001H4.366C6.6747 18.1135 11.5955 14.9976 17 15.0001Z" fill="#0088CC"/>
<path d="M40 42H43C43.5523 42 44 41.5523 44 41C44 40.4477 43.5523 40 43 40H40C39.4477 40 39 40.4477 39 41C39 41.5523 39.4477 42 40 42Z" fill="#0088CC"/>
<path d="M55 40H47C46.4477 40 46 40.4477 46 41C46 41.5523 46.4477 42 47 42H55C55.5523 42 56 41.5523 56 41C56 40.4477 55.5523 40 55 40Z" fill="#0088CC"/>
<path d="M55 45H52C51.4477 45 51 45.4477 51 46C51 46.5523 51.4477 47 52 47H55C55.5523 47 56 46.5523 56 46C56 45.4477 55.5523 45 55 45Z" fill="#0088CC"/>
<path d="M48 45H40C39.4477 45 39 45.4477 39 46C39 46.5523 39.4477 47 40 47H48C48.5523 47 49 46.5523 49 46C49 45.4477 48.5523 45 48 45Z" fill="#0088CC"/>
</g>
<defs>
<clipPath id="clip0">
<rect width="60" height="60" fill="white"/>
</clipPath>
</defs>
</svg>
