<svg width="60" height="60" viewBox="0 0 60 60" fill="none" xmlns="http://www.w3.org/2000/svg">
<path d="M12.1875 43.9375C13.223 43.9375 14.0625 43.098 14.0625 42.0625C14.0625 41.027 13.223 40.1875 12.1875 40.1875C11.152 40.1875 10.3125 41.027 10.3125 42.0625C10.3125 43.098 11.152 43.9375 12.1875 43.9375Z" fill="#0088CC"/>
<path d="M44.0625 43.9375C45.098 43.9375 45.9375 43.098 45.9375 42.0625C45.9375 41.027 45.098 40.1875 44.0625 40.1875C43.027 40.1875 42.1875 41.027 42.1875 42.0625C42.1875 43.098 43.027 43.9375 44.0625 43.9375Z" fill="#0088CC"/>
<path d="M57.1875 13H19.6875C19.4389 13 19.2004 13.0988 19.0246 13.2746C18.8488 13.4504 18.75 13.6889 18.75 13.9375V20.5H9.375C9.19507 20.5 9.01896 20.5519 8.86769 20.6493C8.71641 20.7467 8.59636 20.8856 8.52188 21.0494L3.83438 31.3619V31.3731C3.7804 31.4915 3.75166 31.6199 3.75 31.75V39.25H2.8125C2.56386 39.25 2.3254 39.3488 2.14959 39.5246C1.97377 39.7004 1.875 39.9389 1.875 40.1875V42.0625C1.875 42.8084 2.17132 43.5238 2.69876 44.0512C3.22621 44.5787 3.94158 44.875 4.6875 44.875H7.32375C7.81579 45.7299 8.52446 46.4399 9.37833 46.9337C10.2322 47.4274 11.2011 47.6874 12.1875 47.6874C13.1739 47.6874 14.1428 47.4274 14.9967 46.9337C15.8505 46.4399 16.5592 45.7299 17.0512 44.875H39.1987C39.6908 45.7299 40.3995 46.4399 41.2533 46.9337C42.1072 47.4274 43.0761 47.6874 44.0625 47.6874C45.0489 47.6874 46.0178 47.4274 46.8717 46.9337C47.7255 46.4399 48.4342 45.7299 48.9263 44.875H53.4375C54.1834 44.875 54.8988 44.5787 55.4262 44.0512C55.9537 43.5238 56.25 42.8084 56.25 42.0625V41.125H57.1875C57.4361 41.125 57.6746 41.0262 57.8504 40.8504C58.0262 40.6746 58.125 40.4361 58.125 40.1875V13.9375C58.125 13.6889 58.0262 13.4504 57.8504 13.2746C57.6746 13.0988 57.4361 13 57.1875 13ZM20.625 14.875H56.25V35.5H20.625V14.875ZM39.1987 39.25H20.625V37.375H40.9594C40.2365 37.8567 39.6341 38.4982 39.1987 39.25ZM9.97875 22.375H15V30.8125H6.14344L9.97875 22.375ZM5.625 32.6875H15.9375C16.1861 32.6875 16.4246 32.5887 16.6004 32.4129C16.7762 32.2371 16.875 31.9986 16.875 31.75V22.375H18.75V39.25H17.0512C16.5592 38.3951 15.8505 37.6851 14.9967 37.1913C14.1428 36.6976 13.1739 36.4376 12.1875 36.4376C11.2011 36.4376 10.2322 36.6976 9.37833 37.1913C8.52446 37.6851 7.81579 38.3951 7.32375 39.25H5.625V32.6875ZM4.6875 43C4.43886 43 4.2004 42.9012 4.02459 42.7254C3.84877 42.5496 3.75 42.3111 3.75 42.0625V41.125H6.64688C6.53436 41.7449 6.53436 42.3801 6.64688 43H4.6875ZM12.1875 45.8125C11.4458 45.8125 10.7208 45.5926 10.1041 45.1805C9.48743 44.7685 9.00678 44.1828 8.72295 43.4976C8.43912 42.8123 8.36486 42.0583 8.50955 41.3309C8.65425 40.6035 9.0114 39.9353 9.53585 39.4109C10.0603 38.8864 10.7285 38.5293 11.4559 38.3846C12.1833 38.2399 12.9373 38.3141 13.6226 38.598C14.3078 38.8818 14.8935 39.3624 15.3055 39.9791C15.7176 40.5958 15.9375 41.3208 15.9375 42.0625C15.9375 43.0571 15.5424 44.0109 14.8392 44.7141C14.1359 45.4174 13.1821 45.8125 12.1875 45.8125ZM17.7281 43C17.8406 42.3801 17.8406 41.7449 17.7281 41.125H38.5219C38.4094 41.7449 38.4094 42.3801 38.5219 43H17.7281ZM44.0625 45.8125C43.3208 45.8125 42.5958 45.5926 41.9791 45.1805C41.3624 44.7685 40.8818 44.1828 40.5979 43.4976C40.3141 42.8123 40.2399 42.0583 40.3846 41.3309C40.5293 40.6035 40.8864 39.9353 41.4109 39.4109C41.9353 38.8864 42.6035 38.5293 43.3309 38.3846C44.0583 38.2399 44.8123 38.3141 45.4976 38.598C46.1828 38.8818 46.7685 39.3624 47.1805 39.9791C47.5926 40.5958 47.8125 41.3208 47.8125 42.0625C47.8125 43.0571 47.4174 44.0109 46.7141 44.7141C46.0109 45.4174 45.0571 45.8125 44.0625 45.8125ZM54.375 42.0625C54.375 42.3111 54.2762 42.5496 54.1004 42.7254C53.9246 42.9012 53.6861 43 53.4375 43H49.6031C49.7156 42.3801 49.7156 41.7449 49.6031 41.125H54.375V42.0625ZM56.25 39.25H48.9263C48.4909 38.4982 47.8885 37.8567 47.1656 37.375H56.25V39.25Z" fill="#0088CC"/>
<path d="M26.25 29.875C26.4986 29.875 26.7371 29.7762 26.9129 29.6004C27.0887 29.4246 27.1875 29.1861 27.1875 28.9375V26.125H29.0625C29.3111 26.125 29.5496 26.0262 29.7254 25.8504C29.9012 25.6746 30 25.4361 30 25.1875C30 24.9389 29.9012 24.7004 29.7254 24.5246C29.5496 24.3488 29.3111 24.25 29.0625 24.25H27.1875V22.375H30C30.2486 22.375 30.4871 22.2762 30.6629 22.1004C30.8387 21.9246 30.9375 21.6861 30.9375 21.4375C30.9375 21.1889 30.8387 20.9504 30.6629 20.7746C30.4871 20.5988 30.2486 20.5 30 20.5H26.25C26.0014 20.5 25.7629 20.5988 25.5871 20.7746C25.4113 20.9504 25.3125 21.1889 25.3125 21.4375V28.9375C25.3125 29.1861 25.4113 29.4246 25.5871 29.6004C25.7629 29.7762 26.0014 29.875 26.25 29.875Z" fill="#0088CC"/>
<path d="M32.8125 29.8749C33.0611 29.8749 33.2996 29.7762 33.4754 29.6004C33.6512 29.4245 33.75 29.1861 33.75 28.9374V26.7503L35.8125 29.4999C35.8864 29.5984 35.9789 29.6814 36.0848 29.7441C36.1908 29.8069 36.308 29.8481 36.4299 29.8655C36.5518 29.8829 36.6759 29.8762 36.7952 29.8456C36.9144 29.8151 37.0265 29.7613 37.125 29.6874C37.2235 29.6136 37.3065 29.521 37.3692 29.4151C37.4319 29.3092 37.4732 29.1919 37.4906 29.07C37.508 28.9482 37.5012 28.824 37.4707 28.7048C37.4401 28.5855 37.3864 28.4734 37.3125 28.3749L35.52 25.9853C36.1621 25.7872 36.7117 25.3651 37.0689 24.796C37.4261 24.2268 37.5671 23.5484 37.4662 22.884C37.3654 22.2197 37.0295 21.6136 36.5195 21.1761C36.0095 20.7386 35.3594 20.4986 34.6875 20.4999H32.8125C32.5639 20.4999 32.3254 20.5987 32.1496 20.7745C31.9738 20.9503 31.875 21.1888 31.875 21.4374V28.9374C31.875 29.1861 31.9738 29.4245 32.1496 29.6004C32.3254 29.7762 32.5639 29.8749 32.8125 29.8749ZM35.625 23.3124C35.625 23.5611 35.5262 23.7995 35.3504 23.9754C35.1746 24.1512 34.9361 24.2499 34.6875 24.2499H33.75V22.3749H34.6875C34.9361 22.3749 35.1746 22.4737 35.3504 22.6495C35.5262 22.8253 35.625 23.0638 35.625 23.3124Z" fill="#0088CC"/>
<path d="M40.3125 29.875H44.0625C44.3111 29.875 44.5496 29.7762 44.7254 29.6004C44.9012 29.4246 45 29.1861 45 28.9375C45 28.6889 44.9012 28.4504 44.7254 28.2746C44.5496 28.0988 44.3111 28 44.0625 28H41.25V26.125H43.125C43.3736 26.125 43.6121 26.0262 43.7879 25.8504C43.9637 25.6746 44.0625 25.4361 44.0625 25.1875C44.0625 24.9389 43.9637 24.7004 43.7879 24.5246C43.6121 24.3488 43.3736 24.25 43.125 24.25H41.25V22.375H44.0625C44.3111 22.375 44.5496 22.2762 44.7254 22.1004C44.9012 21.9246 45 21.6861 45 21.4375C45 21.1889 44.9012 20.9504 44.7254 20.7746C44.5496 20.5988 44.3111 20.5 44.0625 20.5H40.3125C40.0639 20.5 39.8254 20.5988 39.6496 20.7746C39.4738 20.9504 39.375 21.1889 39.375 21.4375V28.9375C39.375 29.1861 39.4738 29.4246 39.6496 29.6004C39.8254 29.7762 40.0639 29.875 40.3125 29.875Z" fill="#0088CC"/>
<path d="M46.875 29.875H50.625C50.8736 29.875 51.1121 29.7762 51.2879 29.6004C51.4637 29.4246 51.5625 29.1861 51.5625 28.9375C51.5625 28.6889 51.4637 28.4504 51.2879 28.2746C51.1121 28.0988 50.8736 28 50.625 28H47.8125V26.125H49.6875C49.9361 26.125 50.1746 26.0262 50.3504 25.8504C50.5262 25.6746 50.625 25.4361 50.625 25.1875C50.625 24.9389 50.5262 24.7004 50.3504 24.5246C50.1746 24.3488 49.9361 24.25 49.6875 24.25H47.8125V22.375H50.625C50.8736 22.375 51.1121 22.2762 51.2879 22.1004C51.4637 21.9246 51.5625 21.6861 51.5625 21.4375C51.5625 21.1889 51.4637 20.9504 51.2879 20.7746C51.1121 20.5988 50.8736 20.5 50.625 20.5H46.875C46.6264 20.5 46.3879 20.5988 46.2121 20.7746C46.0363 20.9504 45.9375 21.1889 45.9375 21.4375V28.9375C45.9375 29.1861 46.0363 29.4246 46.2121 29.6004C46.3879 29.7762 46.6264 29.875 46.875 29.875Z" fill="#0088CC"/>
</svg>
