<svg width="60" height="60" viewBox="0 0 60 60" fill="none" xmlns="http://www.w3.org/2000/svg">
<path d="M40.3125 21.1253C40.3125 19.0857 39.7077 17.0919 38.5745 15.396C37.4414 13.7001 35.8308 12.3783 33.9464 11.5978C32.0621 10.8173 29.9886 10.6131 27.9881 11.011C25.9877 11.4089 24.1502 12.391 22.708 13.8333C21.2657 15.2755 20.2836 17.113 19.8857 19.1134C19.4877 21.1139 19.692 23.1874 20.4725 25.0717C21.253 26.9561 22.5748 28.5667 24.2707 29.6998C25.9666 30.833 27.9604 31.4378 30 31.4378C32.7341 31.4347 35.3553 30.3472 37.2886 28.4139C39.2219 26.4806 40.3094 23.8594 40.3125 21.1253ZM21.5625 21.1253C21.5625 19.4565 22.0574 17.8252 22.9845 16.4377C23.9116 15.0501 25.2294 13.9687 26.7711 13.3301C28.3129 12.6915 30.0094 12.5244 31.6461 12.8499C33.2828 13.1755 34.7862 13.9791 35.9662 15.1591C37.1462 16.3391 37.9498 17.8425 38.2754 19.4792C38.6009 21.1159 38.4339 22.8124 37.7952 24.3542C37.1566 25.896 36.0752 27.2137 34.6876 28.1408C33.3001 29.068 31.6688 29.5628 30 29.5628C27.763 29.5603 25.6184 28.6705 24.0366 27.0887C22.4548 25.507 21.565 23.3623 21.5625 21.1253Z" fill="#0088CC"/>
<path d="M32.8125 21.1254C32.8117 20.5415 32.6296 19.9722 32.2911 19.4964C31.9527 19.0206 31.4748 18.6616 30.9234 18.4693C30.9325 18.4176 30.9372 18.3653 30.9375 18.3129V15.5004C30.9375 15.2517 30.8387 15.0133 30.6629 14.8375C30.4871 14.6616 30.2486 14.5629 30 14.5629C29.7514 14.5629 29.5129 14.6616 29.3371 14.8375C29.1613 15.0133 29.0625 15.2517 29.0625 15.5004V18.3129C29.0628 18.3653 29.0675 18.4176 29.0766 18.4693C28.5889 18.6388 28.1573 18.9393 27.8291 19.3378C27.5009 19.7363 27.2886 20.2175 27.2157 20.7286C27.1428 21.2397 27.2119 21.761 27.4156 22.2354C27.6193 22.7098 27.9496 23.119 28.3703 23.4181C28.7911 23.7173 29.2861 23.8948 29.8011 23.9314C30.3161 23.9679 30.8312 23.8619 31.29 23.6251C31.7487 23.3883 32.1335 23.0298 32.402 22.5889C32.6706 22.148 32.8126 21.6416 32.8125 21.1254ZM29.0625 21.1254C29.0625 20.9399 29.1175 20.7587 29.2205 20.6045C29.3235 20.4503 29.4699 20.3302 29.6412 20.2592C29.8125 20.1883 30.001 20.1697 30.1829 20.2059C30.3648 20.2421 30.5318 20.3313 30.6629 20.4625C30.794 20.5936 30.8833 20.7606 30.9195 20.9425C30.9557 21.1243 30.9371 21.3128 30.8661 21.4841C30.7952 21.6554 30.675 21.8019 30.5209 21.9049C30.3667 22.0079 30.1854 22.0629 30 22.0629C29.7515 22.0626 29.5132 21.9637 29.3374 21.788C29.1616 21.6122 29.0628 21.3739 29.0625 21.1254Z" fill="#0088CC"/>
<path d="M58.125 41.7504H45.9375V39.8754C45.9375 39.6268 45.8387 39.3883 45.6629 39.2125C45.4871 39.0367 45.2486 38.9379 45 38.9379H39.375V37.0629C39.375 36.8143 39.2762 36.5758 39.1004 36.4C38.9246 36.2242 38.6861 36.1254 38.4375 36.1254H34.6875V33.3844C37.5527 32.2889 39.9437 30.2243 41.4452 27.5494C42.9467 24.8745 43.4638 21.7581 42.9068 18.7416C42.3498 15.7251 40.7537 12.999 38.3959 11.0367C36.0382 9.07444 33.0675 8 30 8C26.9325 8 23.9619 9.07444 21.6041 11.0367C19.2463 12.999 17.6502 15.7251 17.0932 18.7416C16.5362 21.7581 17.0533 24.8745 18.5548 27.5494C20.0563 30.2243 22.4473 32.2889 25.3125 33.3844V36.1254H21.5625C21.3139 36.1254 21.0754 36.2242 20.8996 36.4C20.7238 36.5758 20.625 36.8143 20.625 37.0629V38.9379H15C14.7514 38.9379 14.5129 39.0367 14.3371 39.2125C14.1613 39.3883 14.0625 39.6268 14.0625 39.8754V41.7504H1.875C1.62636 41.7504 1.3879 41.8492 1.21209 42.025C1.03627 42.2008 0.9375 42.4393 0.9375 42.6879V48.3129C0.9375 48.5616 1.03627 48.8 1.21209 48.9758C1.3879 49.1516 1.62636 49.2504 1.875 49.2504H14.0625V51.1254C14.0625 51.3741 14.1613 51.6125 14.3371 51.7883C14.5129 51.9641 14.7514 52.0629 15 52.0629H45C45.2486 52.0629 45.4871 51.9641 45.6629 51.7883C45.8387 51.6125 45.9375 51.3741 45.9375 51.1254V49.2504H58.125C58.3736 49.2504 58.6121 49.1516 58.7879 48.9758C58.9637 48.8 59.0625 48.5616 59.0625 48.3129V42.6879C59.0625 42.4393 58.9637 42.2008 58.7879 42.025C58.6121 41.8492 58.3736 41.7504 58.125 41.7504ZM18.75 21.1254C18.75 18.9004 19.4098 16.7253 20.646 14.8753C21.8821 13.0252 23.6391 11.5833 25.6948 10.7318C27.7505 9.88029 30.0125 9.6575 32.1948 10.0916C34.3771 10.5257 36.3816 11.5971 37.955 13.1705C39.5283 14.7438 40.5998 16.7484 41.0338 18.9307C41.4679 21.1129 41.2451 23.3749 40.3936 25.4306C39.5422 27.4863 38.1002 29.2433 36.2502 30.4795C34.4001 31.7156 32.225 32.3754 30 32.3754C27.0173 32.3721 24.1578 31.1857 22.0487 29.0767C19.9397 26.9676 18.7533 24.1081 18.75 21.1254ZM27.1875 33.9457C29.0405 34.3515 30.9595 34.3515 32.8125 33.9457V36.1254H27.1875V33.9457ZM22.5 38.0004H37.5V38.9379H22.5V38.0004ZM2.8125 47.3754V43.6254H14.0625V47.3754H2.8125ZM44.0625 50.1879H15.9375V40.8129H44.0625V50.1879ZM57.1875 47.3754H45.9375V43.6254H57.1875V47.3754Z" fill="#0088CC"/>
<path d="M23.4375 47.3754H17.8125C17.5639 47.3754 17.3254 47.4742 17.1496 47.65C16.9738 47.8258 16.875 48.0643 16.875 48.3129C16.875 48.5616 16.9738 48.8 17.1496 48.9758C17.3254 49.1517 17.5639 49.2504 17.8125 49.2504H23.4375C23.6861 49.2504 23.9246 49.1517 24.1004 48.9758C24.2762 48.8 24.375 48.5616 24.375 48.3129C24.375 48.0643 24.2762 47.8258 24.1004 47.65C23.9246 47.4742 23.6861 47.3754 23.4375 47.3754Z" fill="#0088CC"/>
<path d="M27.1875 47.3754H26.25C26.0014 47.3754 25.7629 47.4742 25.5871 47.65C25.4113 47.8258 25.3125 48.0643 25.3125 48.3129C25.3125 48.5616 25.4113 48.8 25.5871 48.9758C25.7629 49.1517 26.0014 49.2504 26.25 49.2504H27.1875C27.4361 49.2504 27.6746 49.1517 27.8504 48.9758C28.0262 48.8 28.125 48.5616 28.125 48.3129C28.125 48.0643 28.0262 47.8258 27.8504 47.65C27.6746 47.4742 27.4361 47.3754 27.1875 47.3754Z" fill="#0088CC"/>
</svg>
