<svg width="60" height="60" viewBox="0 0 60 60" fill="none" xmlns="http://www.w3.org/2000/svg">
<path d="M47.0832 20.071H12.9167C12.4309 20.071 12.0371 20.4648 12.0371 20.9507C12.0371 21.4365 12.4309 21.8303 12.9167 21.8303H47.0832C47.5691 21.8303 47.9628 21.4365 47.9628 20.9507C47.9628 20.4648 47.5691 20.071 47.0832 20.071Z" fill="#0088CC"/>
<path d="M47.0832 29.6489H12.9167C12.4309 29.6489 12.0371 30.0427 12.0371 30.5285C12.0371 31.0143 12.4309 31.4081 12.9167 31.4081H47.0832C47.5691 31.4081 47.9628 31.0144 47.9628 30.5285C47.9628 30.0427 47.5691 29.6489 47.0832 29.6489Z" fill="#0088CC"/>
<path d="M35.8819 35.8645H24.1179C23.632 35.8645 23.2383 36.2583 23.2383 36.7441C23.2383 37.2299 23.632 37.6237 24.1179 37.6237H35.8819C36.3677 37.6237 36.7615 37.23 36.7615 36.7441C36.7615 36.2583 36.3677 35.8645 35.8819 35.8645Z" fill="#0088CC"/>
<path d="M47.0833 24.8406H21.5981C21.1123 24.8406 20.7185 25.2343 20.7185 25.7202C20.7185 26.2059 21.1123 26.5998 21.5981 26.5998H47.0833C47.5692 26.5998 47.963 26.206 47.963 25.7202C47.963 25.2343 47.5692 24.8406 47.0833 24.8406Z" fill="#0088CC"/>
<path d="M17.5056 24.8403H12.9167C12.4309 24.8403 12.0371 25.2341 12.0371 25.7199C12.0371 26.2058 12.4309 26.5996 12.9167 26.5996H17.5056C17.9914 26.5996 18.3852 26.2058 18.3852 25.7199C18.3852 25.2342 17.9914 24.8403 17.5056 24.8403Z" fill="#0088CC"/>
<path d="M55.4591 18.5845C55.2545 18.3835 54.9837 18.2729 54.6949 18.2729C54.6946 18.2729 54.6945 18.2729 54.6943 18.2729C52.9115 18.2729 51.4524 16.8793 51.3721 15.0997C51.3457 14.521 50.8702 14.0679 50.2895 14.0679H9.50126C8.92048 14.0679 8.44481 14.5212 8.41856 15.1003C8.34204 16.8008 6.94997 18.193 5.24935 18.2695C4.67044 18.2955 4.21704 18.7712 4.21704 19.3522V42.089C4.21704 42.6701 4.67044 43.1456 5.24935 43.1716C6.94997 43.2483 8.34204 44.6403 8.41856 46.3414C8.44493 46.9201 8.9206 47.3733 9.50126 47.3733H35.4673C35.9532 47.3733 36.3469 46.9795 36.3469 46.4937C36.3469 46.0079 35.9532 45.614 35.4673 45.614H10.1062C9.74255 43.4954 8.09477 41.8476 5.97614 41.4839V19.957C8.09477 19.5934 9.74255 17.9453 10.1062 15.827H49.685C50.0635 18.0125 51.8231 19.6996 54.0239 19.9883V34.9261C54.0239 35.4118 54.4177 35.8057 54.9036 35.8057C55.3894 35.8057 55.7832 35.4119 55.7832 34.9261V19.3571C55.7832 19.0643 55.6681 18.7898 55.4591 18.5845Z" fill="#0088CC"/>
<path d="M57.5584 9.677H2.4416C1.09535 9.677 0 10.7724 0 12.1186V49.3221C0 50.6685 1.09535 51.7637 2.4416 51.7637H39.3613L38.0542 54.5027C37.8862 54.8544 37.9271 55.2668 38.1606 55.5788C38.3941 55.8908 38.7784 56.0459 39.1629 55.9843L41.5964 55.5932L42.9538 57.8213C43.1441 58.1339 43.4823 58.3226 43.8457 58.3226C43.8634 58.3226 43.8812 58.3221 43.899 58.3212C44.2825 58.3017 44.6234 58.0744 44.7889 57.7277L47.1475 52.7856L49.5057 57.7274C49.671 58.074 50.0119 58.3016 50.3954 58.3213C50.4134 58.3222 50.4314 58.3227 50.4492 58.3227C50.8126 58.3227 51.1508 58.134 51.3411 57.8215L52.6985 55.5934L55.132 55.9847C55.5177 56.0463 55.9013 55.8908 56.1346 55.5786C56.368 55.2665 56.4086 54.8542 56.2406 54.5031L54.9335 51.7641H57.5584C58.9046 51.7641 60 50.6688 60 49.3225V12.1186C60 10.7724 58.9046 9.677 57.5584 9.677ZM43.7696 55.7791L42.8489 54.268C42.6272 53.904 42.2121 53.7125 41.7909 53.7802L40.2284 54.0314L41.8744 50.5824C42.5231 51.2443 43.4474 51.602 44.4068 51.5116C44.7348 51.4802 45.0636 51.5686 45.3323 51.7595C45.4209 51.8225 45.5129 51.8784 45.6061 51.9312L43.7696 55.7791ZM47.3572 50.5634C47.3545 50.5637 47.3518 50.564 47.349 50.5644C47.2157 50.5841 47.0801 50.5841 46.9467 50.5645C46.9433 50.5641 46.9399 50.5637 46.9366 50.5632C46.73 50.5313 46.5292 50.4522 46.3513 50.3257C45.8193 49.9474 45.184 49.7463 44.5359 49.7463C44.4377 49.7463 44.3393 49.751 44.2409 49.7603C43.6586 49.8152 43.1053 49.4954 42.8623 48.9643C42.7543 48.7286 42.6166 48.5104 42.4568 48.3108C42.4498 48.3008 42.442 48.2915 42.4347 48.2818C42.4257 48.2711 42.4174 48.2599 42.4085 48.2493C42.3983 48.2373 42.3877 48.2259 42.3768 48.2146C42.0859 47.8799 41.7265 47.6066 41.3171 47.4193C40.7859 47.1763 40.4661 46.6222 40.5212 46.0406C40.592 45.2923 40.3913 44.5427 39.9558 43.9302C39.6172 43.4541 39.6172 42.8143 39.9557 42.3382C40.3912 41.7257 40.592 40.9761 40.5212 40.2278C40.4661 39.6462 40.7861 39.0921 41.3171 38.8491C42.0007 38.5363 42.5494 37.9876 42.8621 37.3041C43.1053 36.7729 43.6605 36.4529 44.2409 36.5081C44.99 36.5788 45.7389 36.3781 46.3514 35.9426C46.8277 35.6041 47.4674 35.6041 47.9434 35.9426C48.5561 36.3781 49.305 36.5783 50.0539 36.5081C50.636 36.4528 51.1897 36.773 51.4328 37.3041C51.7455 37.9876 52.2942 38.5363 52.9777 38.849C53.5089 39.0921 53.8288 39.6462 53.7737 40.2277C53.7029 40.9761 53.9037 41.7257 54.3391 42.3381C54.6777 42.8142 54.6777 43.454 54.3391 43.9301C53.9037 44.5427 53.7029 45.2923 53.7737 46.0405C53.8288 46.6221 53.5089 47.1762 52.9775 47.4193C52.5691 47.6063 52.2105 47.8788 51.92 48.2125C51.9081 48.2249 51.8964 48.2374 51.8854 48.2504C51.8777 48.2596 51.8706 48.2691 51.863 48.2783C51.8542 48.2896 51.8453 48.3006 51.8371 48.3122C51.6777 48.5114 51.5404 48.7291 51.4328 48.9643C51.1896 49.4954 50.6355 49.8155 50.0539 49.7603C49.3063 49.6898 48.5563 49.8902 47.9434 50.3257C47.7653 50.4523 47.5642 50.5315 47.3572 50.5634ZM52.5039 53.78C52.0826 53.7127 51.6677 53.904 51.4459 54.2681L50.5253 55.7793L48.6888 51.9312C48.782 51.8784 48.8739 51.8225 48.9626 51.7595C49.2314 51.5685 49.5605 51.4799 49.8881 51.5115C50.8479 51.602 51.7719 51.2443 52.4207 50.5824L54.0666 54.0313L52.5039 53.78ZM58.2409 49.3222C58.2409 49.6985 57.9348 50.0047 57.5584 50.0047H54.094L53.6405 49.0543C53.6633 49.0423 53.6861 49.0296 53.7097 49.0188C54.921 48.4644 55.6505 47.2009 55.525 45.8748C55.4939 45.5467 55.5819 45.218 55.7729 44.9493C56.5447 43.8635 56.5447 42.4045 55.7728 41.3188C55.5819 41.0502 55.4939 40.7216 55.525 40.3934C55.6505 39.0673 54.921 37.8038 53.7096 37.2493C53.41 37.1121 53.1694 36.8715 53.0321 36.5719C52.4778 35.3605 51.2137 34.6313 49.888 34.7566C49.5596 34.7879 49.2312 34.6997 48.9626 34.5087C47.8768 33.7369 46.4177 33.7368 45.3321 34.5087C45.0634 34.6997 44.734 34.7879 44.4067 34.7565C43.0789 34.6316 41.8168 35.3605 41.2627 36.5718C41.1254 36.8715 40.8848 37.112 40.5851 37.2492C39.3738 37.8036 38.6443 39.067 38.7698 40.3932C38.8009 40.7215 38.7129 41.0501 38.5219 41.3188C37.7501 42.4045 37.7501 43.8635 38.5219 44.9491C38.7129 45.2177 38.8009 45.5465 38.7698 45.8747C38.6443 47.2009 39.3738 48.4644 40.5851 49.0187C40.6087 49.0295 40.6314 49.0422 40.6542 49.0542L40.2007 50.0047H2.4416C2.06531 50.0047 1.7591 49.6986 1.7591 49.3222V12.1186C1.7591 11.7423 2.0652 11.4361 2.4416 11.4361H57.5584C57.9347 11.4361 58.2409 11.7423 58.2409 12.1186V49.3222Z" fill="#0088CC"/>
<path d="M47.0833 37.6694C44.07 37.6694 41.6184 40.121 41.6184 43.1342C41.6184 46.1476 44.07 48.5992 47.0833 48.5992C50.0967 48.5992 52.5481 46.1475 52.5481 43.1342C52.5481 40.1209 50.0967 37.6694 47.0833 37.6694ZM47.0833 46.8399C45.0399 46.8399 43.3775 45.1775 43.3775 43.1341C43.3775 41.0908 45.0399 39.4284 47.0833 39.4284C49.1266 39.4284 50.789 41.0908 50.789 43.1341C50.789 45.1775 49.1266 46.8399 47.0833 46.8399Z" fill="#0088CC"/>
</svg>
