<svg width="60" height="60" viewBox="0 0 60 60" fill="none" xmlns="http://www.w3.org/2000/svg">
<path d="M57.1875 50.625C57.4361 50.625 57.6746 50.5262 57.8504 50.3504C58.0262 50.1746 58.125 49.9361 58.125 49.6875C58.125 49.4389 58.0262 49.2004 57.8504 49.0246C57.6746 48.8488 57.4361 48.75 57.1875 48.75H53.4375V34.6875C53.4375 34.4389 53.3387 34.2004 53.1629 34.0246C52.9871 33.8488 52.7486 33.75 52.5 33.75H45.9375V32.0306C46.063 31.5782 46.3059 31.1671 46.6416 30.8389C46.9773 30.5106 47.3937 30.277 47.8488 30.1616C48.3039 30.0463 48.7814 30.0533 49.2329 30.182C49.6844 30.3106 50.0938 30.5564 50.4197 30.8944C50.565 31.0452 50.7566 31.143 50.9639 31.1723C51.1713 31.2015 51.3825 31.1605 51.5638 31.0558C51.7451 30.951 51.8862 30.7886 51.9644 30.5943C52.0427 30.4001 52.0537 30.1853 51.9956 29.9841C51.8646 29.5261 51.8584 29.0415 51.9777 28.5804C52.097 28.1193 52.3375 27.6985 52.6743 27.3616C53.011 27.0247 53.4318 26.7841 53.8929 26.6647C54.354 26.5452 54.8386 26.5512 55.2966 26.6822C55.4975 26.7395 55.7118 26.7281 55.9055 26.6497C56.0992 26.5713 56.2612 26.4304 56.3656 26.2494C56.4701 26.0685 56.5112 25.8578 56.4822 25.6508C56.4533 25.4439 56.356 25.2526 56.2059 25.1072C55.864 24.7758 55.6168 24.359 55.49 23.9C55.3631 23.441 55.3613 22.9564 55.4846 22.4965C55.608 22.0365 55.852 21.6179 56.1914 21.2839C56.5309 20.9499 56.9534 20.7127 57.4153 20.5969C57.618 20.5461 57.798 20.429 57.9265 20.2642C58.0551 20.0995 58.1249 19.8965 58.1249 19.6875C58.1249 19.4785 58.0551 19.2755 57.9265 19.1108C57.798 18.946 57.618 18.8289 57.4153 18.7781C56.9534 18.6623 56.5309 18.4251 56.1914 18.0911C55.852 17.7571 55.608 17.3385 55.4846 16.8785C55.3613 16.4186 55.3631 15.934 55.49 15.475C55.6168 15.016 55.864 14.5992 56.2059 14.2678C56.2945 14.1822 56.3652 14.08 56.4143 13.967C56.4633 13.854 56.4896 13.7325 56.4916 13.6093C56.4936 13.4862 56.4714 13.3639 56.4262 13.2493C56.3809 13.1348 56.3136 13.0302 56.228 12.9417C56.1423 12.8532 56.0401 12.7824 55.9271 12.7334C55.8142 12.6844 55.6926 12.6581 55.5695 12.6561C55.4463 12.654 55.324 12.6762 55.2095 12.7215C55.0949 12.7667 54.9904 12.8341 54.9019 12.9197C54.4444 13.3647 54.0854 13.9006 53.8479 14.4929C53.6104 15.0853 53.4997 15.7208 53.523 16.3585C53.5463 16.9963 53.7031 17.622 53.9833 18.1954C54.2634 18.7688 54.6606 19.2771 55.1494 19.6875C54.4311 20.2929 53.9157 21.104 53.6726 22.0113C53.4296 22.9187 53.4705 23.8788 53.79 24.7622C52.8651 24.9272 52.0131 25.3719 51.3487 26.0362C50.6844 26.7006 50.2397 27.5526 50.0747 28.4775C49.1912 28.1582 48.2311 28.1173 47.3237 28.3606C46.4163 28.6038 45.6053 29.1194 45 29.8378C44.3947 29.1194 43.5837 28.6038 42.6763 28.3606C41.7689 28.1173 40.8088 28.1582 39.9253 28.4775C39.7603 27.5526 39.3156 26.7006 38.6513 26.0362C37.9869 25.3719 37.1349 24.9272 36.21 24.7622C36.5295 23.8788 36.5704 22.9187 36.3274 22.0113C36.0843 21.104 35.5689 20.2929 34.8506 19.6875C35.5689 19.0821 36.0843 18.271 36.3274 17.3637C36.5704 16.4563 36.5295 15.4962 36.21 14.6128C37.1349 14.4478 37.9869 14.0031 38.6513 13.3388C39.3156 12.6744 39.7603 11.8224 39.9253 10.8975C40.8088 11.2168 41.7689 11.2577 42.6763 11.0144C43.5837 10.7712 44.3947 10.2556 45 9.53719C45.6053 10.2556 46.4163 10.7712 47.3237 11.0144C48.2311 11.2577 49.1912 11.2168 50.0747 10.8975C50.2354 11.8228 50.6808 12.6748 51.3488 13.335C51.4352 13.4245 51.5387 13.496 51.6531 13.5451C51.7674 13.5942 51.8905 13.6201 52.0149 13.6212C52.1394 13.6223 52.2629 13.5985 52.3781 13.5514C52.4933 13.5043 52.598 13.4346 52.686 13.3466C52.774 13.2586 52.8436 13.1539 52.8908 13.0387C52.9379 12.9235 52.9616 12.8 52.9605 12.6756C52.9595 12.5511 52.9336 12.4281 52.8845 12.3137C52.8353 12.1993 52.7639 12.0959 52.6744 12.0094C52.3342 11.6743 52.0914 11.2531 51.9718 10.7908C51.8523 10.3285 51.8605 9.84238 51.9956 9.38438C52.0537 9.18317 52.0427 8.96833 51.9644 8.77409C51.8862 8.57986 51.7451 8.41742 51.5638 8.31267C51.3825 8.20793 51.1713 8.16691 50.9639 8.19616C50.7566 8.22541 50.565 8.32325 50.4197 8.47406C50.0889 8.81635 49.6727 9.06403 49.2141 9.19147C48.7555 9.31892 48.2712 9.32149 47.8112 9.19893C47.3513 9.07637 46.9325 8.83313 46.5981 8.49438C46.2637 8.15563 46.0259 7.73368 45.9094 7.27219C45.8586 7.06947 45.7415 6.88955 45.5767 6.76099C45.412 6.63242 45.209 6.5626 45 6.5626C44.791 6.5626 44.588 6.63242 44.4233 6.76099C44.2585 6.88955 44.1414 7.06947 44.0906 7.27219C43.9749 7.7342 43.7378 8.15686 43.4037 8.49638C43.0697 8.83591 42.651 9.07994 42.191 9.2032C41.7309 9.32647 41.2463 9.32447 40.7872 9.19742C40.3282 9.07037 39.9115 8.82289 39.5803 8.48062C39.4349 8.33043 39.2434 8.23317 39.0363 8.20429C38.8293 8.17542 38.6185 8.21658 38.4375 8.32125V4.6875C38.4375 4.43886 38.3387 4.2004 38.1629 4.02459C37.9871 3.84877 37.7486 3.75 37.5 3.75H22.5C22.2514 3.75 22.0129 3.84877 21.8371 4.02459C21.6613 4.2004 21.5625 4.43886 21.5625 4.6875V10.3125C21.5625 10.5611 21.6613 10.7996 21.8371 10.9754C22.0129 11.1512 22.2514 11.25 22.5 11.25C22.7486 11.25 22.9871 11.1512 23.1629 10.9754C23.3387 10.7996 23.4375 10.5611 23.4375 10.3125V5.625H26.25V10.3125C26.25 10.5611 26.3488 10.7996 26.5246 10.9754C26.7004 11.1512 26.9389 11.25 27.1875 11.25H32.8125C33.0611 11.25 33.2996 11.1512 33.4754 10.9754C33.6512 10.7996 33.75 10.5611 33.75 10.3125V5.625H36.5625V12.5297C35.9832 12.8094 35.3216 12.8674 34.7025 12.6928C34.5016 12.6355 34.2872 12.6469 34.0935 12.7253C33.8998 12.8037 33.7379 12.9446 33.6334 13.1256C33.5289 13.3065 33.4879 13.5172 33.5168 13.7242C33.5458 13.9311 33.643 14.1224 33.7931 14.2678C34.1313 14.5937 34.3773 15.0033 34.5061 15.4549C34.6348 15.9066 34.6417 16.3843 34.5261 16.8395C34.4105 17.2948 34.1766 17.7113 33.8479 18.0468C33.5193 18.3824 33.1077 18.625 32.655 18.75H23.4375V14.0625C23.4375 13.8139 23.3387 13.5754 23.1629 13.3996C22.9871 13.2238 22.7486 13.125 22.5 13.125C22.2514 13.125 22.0129 13.2238 21.8371 13.3996C21.6613 13.5754 21.5625 13.8139 21.5625 14.0625V18.75H15C14.7514 18.75 14.5129 18.8488 14.3371 19.0246C14.1613 19.2004 14.0625 19.4389 14.0625 19.6875V33.75H7.5C7.25136 33.75 7.0129 33.8488 6.83709 34.0246C6.66127 34.2004 6.5625 34.4389 6.5625 34.6875V45.9375C6.5625 46.1861 6.66127 46.4246 6.83709 46.6004C7.0129 46.7762 7.25136 46.875 7.5 46.875C7.74864 46.875 7.9871 46.7762 8.16291 46.6004C8.33873 46.4246 8.4375 46.1861 8.4375 45.9375V35.625H11.25V40.3125C11.25 40.5611 11.3488 40.7996 11.5246 40.9754C11.7004 41.1512 11.9389 41.25 12.1875 41.25H17.8125C18.0611 41.25 18.2996 41.1512 18.4754 40.9754C18.6512 40.7996 18.75 40.5611 18.75 40.3125V35.625H21.5625V48.75H2.8125C2.56386 48.75 2.3254 48.8488 2.14959 49.0246C1.97377 49.2004 1.875 49.4389 1.875 49.6875V53.4375C1.875 53.6861 1.97377 53.9246 2.14959 54.1004C2.3254 54.2762 2.56386 54.375 2.8125 54.375H4.6875V57.1875C4.6875 57.4361 4.78627 57.6746 4.96209 57.8504C5.1379 58.0262 5.37636 58.125 5.625 58.125H9.375C9.62364 58.125 9.8621 58.0262 10.0379 57.8504C10.2137 57.6746 10.3125 57.4361 10.3125 57.1875V54.375H49.6875V57.1875C49.6875 57.4361 49.7863 57.6746 49.9621 57.8504C50.1379 58.0262 50.3764 58.125 50.625 58.125H54.375C54.6236 58.125 54.8621 58.0262 55.0379 57.8504C55.2137 57.6746 55.3125 57.4361 55.3125 57.1875V54.375H57.1875C57.4361 54.375 57.6746 54.2762 57.8504 54.1004C58.0262 53.9246 58.125 53.6861 58.125 53.4375C58.125 53.1889 58.0262 52.9504 57.8504 52.7746C57.6746 52.5988 57.4361 52.5 57.1875 52.5H3.75V50.625H57.1875ZM31.875 9.375H28.125V5.625H31.875V9.375ZM51.5625 48.75H38.4375V35.625H41.25V40.3125C41.25 40.5611 41.3488 40.7996 41.5246 40.9754C41.7004 41.1512 41.9389 41.25 42.1875 41.25H47.8125C48.0611 41.25 48.2996 41.1512 48.4754 40.9754C48.6512 40.7996 48.75 40.5611 48.75 40.3125V38.4375C48.75 38.1889 48.6512 37.9504 48.4754 37.7746C48.2996 37.5988 48.0611 37.5 47.8125 37.5C47.5639 37.5 47.3254 37.5988 47.1496 37.7746C46.9738 37.9504 46.875 38.1889 46.875 38.4375V39.375H43.125V35.625H51.5625V48.75ZM34.5159 22.5C34.6429 22.9597 34.6427 23.4453 34.5155 23.905C34.3882 24.3646 34.1385 24.7811 33.7931 25.11C33.643 25.2554 33.5458 25.4467 33.5168 25.6537C33.4879 25.8606 33.5289 26.0713 33.6334 26.2522C33.7379 26.4332 33.8998 26.5741 34.0935 26.6525C34.2872 26.7309 34.5016 26.7423 34.7025 26.685C35.1605 26.5542 35.6451 26.5482 36.1062 26.6677C36.5673 26.7871 36.988 27.0278 37.3248 27.3646C37.6616 27.7014 37.9022 28.1221 38.0217 28.5832C38.1412 29.0442 38.1352 29.5289 38.0044 29.9869C37.9463 30.1881 37.9573 30.4029 38.0356 30.5972C38.1138 30.7914 38.2549 30.9538 38.4362 31.0586C38.6175 31.1633 38.8287 31.2043 39.0361 31.1751C39.2434 31.1458 39.435 31.048 39.5803 30.8972C39.906 30.5592 40.3152 30.3133 40.7666 30.1845C41.2179 30.0556 41.6952 30.0483 42.1503 30.1634C42.6053 30.2785 43.0218 30.5118 43.3576 30.8397C43.6935 31.1676 43.9366 31.5785 44.0625 32.0306V33.75H30.9375V20.625H32.655C33.1032 20.7451 33.5116 20.982 33.8385 21.3113C34.1654 21.6407 34.3992 22.0509 34.5159 22.5ZM28.125 35.625H31.875V39.375H28.125V35.625ZM24.375 20.625V24.375H20.625V20.625H24.375ZM16.875 39.375H13.125V35.625H16.875V39.375ZM15.9375 33.75V20.625H18.75V25.3125C18.75 25.5611 18.8488 25.7996 19.0246 25.9754C19.2004 26.1512 19.4389 26.25 19.6875 26.25H25.3125C25.5611 26.25 25.7996 26.1512 25.9754 25.9754C26.1512 25.7996 26.25 25.5611 26.25 25.3125V20.625H29.0625V33.75H15.9375ZM23.4375 35.625H26.25V40.3125C26.25 40.5611 26.3488 40.7996 26.5246 40.9754C26.7004 41.1512 26.9389 41.25 27.1875 41.25H32.8125C33.0611 41.25 33.2996 41.1512 33.4754 40.9754C33.6512 40.7996 33.75 40.5611 33.75 40.3125V35.625H36.5625V48.75H23.4375V35.625ZM53.4375 54.375V56.25H51.5625V54.375H53.4375ZM8.4375 54.375V56.25H6.5625V54.375H8.4375Z" fill="#0088CC"/>
<path d="M41.431 26.2857C43.0156 27.1431 44.8558 27.4014 46.6152 27.0135C48.3746 26.6255 49.9355 25.6172 51.0125 24.173C52.0896 22.7287 52.6107 20.945 52.4807 19.1481C52.3507 17.3512 51.5781 15.6611 50.3044 14.3869C49.0306 13.1128 47.3408 12.3397 45.5439 12.2091C43.747 12.0785 41.9631 12.5991 40.5185 13.6757C39.0739 14.7523 38.0652 16.313 37.6767 18.0722C37.2882 19.8315 37.546 21.6718 38.4029 23.2566C38.5238 23.4706 38.7239 23.6286 38.9602 23.6965C39.1964 23.7644 39.4498 23.7368 39.6659 23.6196C39.882 23.5025 40.0435 23.3052 40.1155 23.0702C40.1875 22.8352 40.1644 22.5813 40.051 22.3632C39.4085 21.1746 39.2153 19.7945 39.5067 18.4752C39.7981 17.1559 40.5546 15.9855 41.6379 15.1781C42.7212 14.3707 44.059 13.9802 45.4065 14.078C46.7541 14.1759 48.0214 14.7554 48.9768 15.7108C49.9322 16.6662 50.5118 17.9335 50.6096 19.2811C50.7074 20.6286 50.3169 21.9664 49.5095 23.0497C48.7021 24.133 47.5317 24.8895 46.2124 25.1809C44.8931 25.4723 43.513 25.2791 42.3245 24.6366C42.1058 24.5181 41.849 24.4914 41.6106 24.5622C41.3722 24.6331 41.1717 24.7957 41.0532 25.0144C40.9347 25.2331 40.908 25.4899 40.9788 25.7283C41.0497 25.9667 41.2123 26.1672 41.431 26.2857Z" fill="#0088CC"/>
<path d="M43.3996 22.2252C43.5754 22.401 43.8139 22.4997 44.0625 22.4997C44.311 22.4997 44.5495 22.401 44.7253 22.2252L48.4753 18.4752C48.646 18.2984 48.7405 18.0616 48.7384 17.8158C48.7363 17.57 48.6377 17.3348 48.4638 17.161C48.29 16.9872 48.0549 16.8886 47.8091 16.8864C47.5633 16.8843 47.3265 16.9788 47.1496 17.1496L44.0625 20.2368L42.8503 19.0246C42.6735 18.8538 42.4366 18.7593 42.1908 18.7614C41.945 18.7636 41.7099 18.8622 41.5361 19.036C41.3622 19.2098 41.2636 19.445 41.2615 19.6908C41.2594 19.9366 41.3539 20.1734 41.5246 20.3502L43.3996 22.2252Z" fill="#0088CC"/>
</svg>
