<svg width="201" height="27" viewBox="0 0 201 27" fill="none" xmlns="http://www.w3.org/2000/svg">
<path d="M9.24111 13.272V9.96798H18.4811V21H15.4851L15.2891 19.124C14.1318 20.6733 12.2371 21.448 9.60511 21.448C6.63711 21.448 4.29444 20.4866 2.57711 18.564C0.859776 16.6413 0.00110891 14.1306 0.00110891 11.032C-0.0362244 8.02665 0.869109 5.54398 2.71711 3.58398C4.56511 1.60532 7.00111 0.634649 10.0251 0.671983C11.7424 0.671983 13.2451 0.961316 14.5331 1.53998C15.8398 2.09998 17.1558 3.05198 18.4811 4.39598L16.0171 6.94398C14.8784 5.91732 13.8518 5.18931 12.9371 4.75998C12.0411 4.33065 11.0611 4.11598 9.99711 4.11598C8.16778 4.11598 6.71178 4.73198 5.62911 5.96398C4.54644 7.17732 4.00511 8.86665 4.00511 11.032C4.00511 13.2533 4.52778 14.98 5.57311 16.212C6.61844 17.4253 8.06511 18.032 9.91311 18.032C11.4811 18.032 12.7038 17.64 13.5811 16.856C14.4771 16.0533 14.9251 14.9613 14.9251 13.58V13.272H9.24111Z" fill="#ED1C24"/>
<path d="M38.5258 3.61198L36.2298 6.32798C35.2592 5.48798 34.3818 4.90932 33.5978 4.59198C32.8325 4.25598 31.9925 4.08798 31.0778 4.08798C29.2672 4.08798 27.8205 4.72265 26.7378 5.99198C25.6738 7.24265 25.1418 8.92265 25.1418 11.032C25.1418 13.1413 25.6738 14.84 26.7378 16.128C27.8205 17.3973 29.2485 18.032 31.0218 18.032C32.0112 18.032 32.8978 17.8453 33.6818 17.472C34.4285 17.0986 35.3805 16.436 36.5378 15.484L38.8338 18.144C37.5832 19.32 36.3512 20.1693 35.1378 20.692C33.9432 21.2146 32.5898 21.476 31.0778 21.476C28.1098 21.5133 25.7018 20.5333 23.8538 18.536C22.0058 16.5386 21.1005 14.028 21.1378 11.004C21.1005 7.99865 21.9872 5.51598 23.7978 3.55598C25.6272 1.57732 28.0632 0.606648 31.1058 0.643981C32.5805 0.643981 33.8872 0.877315 35.0258 1.34398C36.1645 1.79198 37.3312 2.54798 38.5258 3.61198Z" fill="#ED1C24"/>
<path d="M55.1777 1.11998V4.42398H45.1257V9.07198H54.5337V12.376H45.1257V17.696H55.4857V21H41.2057V1.11998H55.1777Z" fill="#ED1C24"/>
<path d="M78.3716 2.856C79.5663 3.99466 80.1636 5.50666 80.1636 7.392C80.1636 9.27733 79.5663 10.7893 78.3716 11.928C77.1956 13.0667 75.609 13.636 73.6116 13.636H67.9556V21H64.0356V1.12H73.6116C75.609 1.12 77.1956 1.69866 78.3716 2.856ZM72.9116 4.368H67.9556V10.388H72.9116C73.957 10.388 74.7783 10.1267 75.3756 9.604C75.973 9.08133 76.2716 8.344 76.2716 7.392C76.2716 6.44 75.973 5.70266 75.3756 5.18C74.797 4.63866 73.9756 4.368 72.9116 4.368Z" fill="#009A93"/>
<path d="M93.2701 16.408L95.3141 18.648C94.3247 19.656 93.326 20.3747 92.3181 20.804C91.3101 21.2333 90.1807 21.448 88.9301 21.448C86.6341 21.448 84.8047 20.7667 83.4421 19.404C82.0981 18.0413 81.4261 16.212 81.4261 13.916C81.4261 11.6573 82.0794 9.80933 83.3861 8.37199C84.6927 6.93466 86.4381 6.216 88.6221 6.216C90.7501 6.216 92.3927 6.84133 93.5501 8.092C94.7261 9.34266 95.3141 11.0973 95.3141 13.356C95.3141 13.748 95.2954 14.224 95.2581 14.784H84.982C85.15 15.9227 85.57 16.8093 86.2421 17.444C86.9327 18.06 87.8567 18.368 89.0141 18.368C89.8167 18.368 90.4981 18.228 91.0581 17.948C91.6554 17.668 92.3927 17.1547 93.2701 16.408ZM85.0661 12.18H91.7581C91.6834 11.2093 91.3567 10.4533 90.7781 9.91199C90.2181 9.35199 89.4621 9.072 88.5101 9.072C86.6621 9.072 85.5141 10.108 85.0661 12.18Z" fill="#009A93"/>
<path d="M108.041 9.632H101.545V21H97.9054V6.692H108.041V9.632Z" fill="#009A93"/>
<path d="M119.526 6.692H123.222L117.706 22.596C117.22 23.9773 116.595 24.9667 115.83 25.564C115.083 26.1613 114.056 26.46 112.75 26.46C111.704 26.46 110.79 26.3387 110.006 26.096L110.622 23.38C111.2 23.492 111.76 23.548 112.302 23.548C113.422 23.548 114.178 22.9507 114.57 21.756L109.194 6.692H113.002L114.262 10.444C115.288 13.5053 115.97 15.652 116.306 16.884C117.426 13.2253 118.088 11.0693 118.294 10.416L119.526 6.692Z" fill="#009A93"/>
<path d="M122.597 20.972L122.933 18.088C123.381 18.144 123.735 18.172 123.997 18.172C124.781 18.116 125.275 17.808 125.481 17.248C125.686 16.6693 125.807 15.3347 125.845 13.244L125.901 6.692H137.437V21H133.797V9.632H129.205L129.149 13.3C129.111 16.3053 128.803 18.3587 128.225 19.46C127.646 20.5427 126.479 21.1213 124.725 21.196C123.941 21.196 123.231 21.1213 122.597 20.972Z" fill="#009A93"/>
<path d="M145.709 6.692H153.101V21H149.601V16.408H147.361L143.805 21H139.661L143.609 16.1C142.545 15.7827 141.714 15.2227 141.117 14.42C140.538 13.5987 140.249 12.6373 140.249 11.536C140.249 10.08 140.734 8.91333 141.705 8.036C142.694 7.14 144.029 6.692 145.709 6.692ZM149.601 13.496V9.604H146.157C145.429 9.604 144.869 9.78133 144.477 10.136C144.085 10.472 143.889 10.9387 143.889 11.536C143.889 12.1333 144.085 12.6093 144.477 12.964C144.869 13.3187 145.429 13.496 146.157 13.496H149.601Z" fill="#009A93"/>
<path d="M168.35 9.632H163.646V21H160.006V9.632H155.302V6.692H168.35V9.632Z" fill="#009A93"/>
<path d="M182.077 8.344C183.477 9.744 184.177 11.5733 184.177 13.832C184.177 16.0907 183.477 17.9293 182.077 19.348C180.696 20.748 178.922 21.448 176.757 21.448C174.573 21.448 172.781 20.748 171.381 19.348C170 17.9293 169.309 16.0907 169.309 13.832C169.309 11.5733 170 9.744 171.381 8.344C172.781 6.92533 174.573 6.216 176.757 6.216C178.922 6.216 180.696 6.92533 182.077 8.344ZM173.005 13.832C173.005 15.2133 173.341 16.3147 174.013 17.136C174.704 17.9573 175.618 18.368 176.757 18.368C177.877 18.368 178.773 17.9573 179.445 17.136C180.136 16.3147 180.481 15.2133 180.481 13.832C180.481 12.4693 180.136 11.3773 179.445 10.556C178.773 9.716 177.877 9.296 176.757 9.296C175.618 9.296 174.704 9.716 174.013 10.556C173.341 11.3773 173.005 12.4693 173.005 13.832Z" fill="#009A93"/>
<path d="M199.123 8.37199C200.317 9.75333 200.915 11.5733 200.915 13.832C200.915 16.0907 200.317 17.92 199.123 19.32C197.928 20.7013 196.407 21.392 194.559 21.392C192.673 21.392 191.245 20.7667 190.275 19.516V26.04H186.635V6.692H190.023V8.568C191.049 7.03733 192.571 6.272 194.587 6.272C196.435 6.272 197.947 6.972 199.123 8.37199ZM196.267 17.052C196.901 16.2493 197.219 15.176 197.219 13.832C197.219 12.488 196.901 11.4147 196.267 10.612C195.651 9.80933 194.811 9.408 193.747 9.408C192.683 9.408 191.815 9.81866 191.143 10.64C190.471 11.4427 190.135 12.5067 190.135 13.832C190.135 15.176 190.461 16.2493 191.115 17.052C191.787 17.836 192.655 18.228 193.719 18.228C194.783 18.228 195.632 17.836 196.267 17.052Z" fill="#009A93"/>
</svg>
