<svg width="201" height="27" viewBox="0 0 201 27" fill="none" xmlns="http://www.w3.org/2000/svg">
<path d="M9.24111 13.2721V9.9681H18.4811V21.0001H15.4851L15.2891 19.1241C14.1318 20.6734 12.2371 21.4481 9.60511 21.4481C6.63711 21.4481 4.29444 20.4868 2.57711 18.5641C0.859776 16.6414 0.00110891 14.1308 0.00110891 11.0321C-0.0362244 8.02677 0.869109 5.5441 2.71711 3.5841C4.56511 1.60544 7.00111 0.634771 10.0251 0.672105C11.7424 0.672105 13.2451 0.961438 14.5331 1.5401C15.8398 2.1001 17.1558 3.0521 18.4811 4.3961L16.0171 6.9441C14.8784 5.91744 13.8518 5.18944 12.9371 4.7601C12.0411 4.33077 11.0611 4.1161 9.99711 4.1161C8.16778 4.1161 6.71178 4.7321 5.62911 5.96411C4.54644 7.17744 4.00511 8.86677 4.00511 11.0321C4.00511 13.2534 4.52778 14.9801 5.57311 16.2121C6.61844 17.4254 8.06511 18.0321 9.91311 18.0321C11.4811 18.0321 12.7038 17.6401 13.5811 16.8561C14.4771 16.0534 14.9251 14.9614 14.9251 13.5801V13.2721H9.24111Z" fill="#0088CC"/>
<path d="M38.5258 3.6121L36.2298 6.3281C35.2592 5.4881 34.3818 4.90944 33.5978 4.5921C32.8325 4.2561 31.9925 4.0881 31.0778 4.0881C29.2672 4.0881 27.8205 4.72277 26.7378 5.9921C25.6738 7.24277 25.1418 8.92277 25.1418 11.0321C25.1418 13.1414 25.6738 14.8401 26.7378 16.1281C27.8205 17.3974 29.2485 18.0321 31.0218 18.0321C32.0112 18.0321 32.8978 17.8454 33.6818 17.4721C34.4285 17.0988 35.3805 16.4361 36.5378 15.4841L38.8338 18.1441C37.5832 19.3201 36.3512 20.1694 35.1378 20.6921C33.9432 21.2148 32.5898 21.4761 31.0778 21.4761C28.1098 21.5134 25.7018 20.5334 23.8538 18.5361C22.0058 16.5388 21.1005 14.0281 21.1378 11.0041C21.1005 7.99877 21.9872 5.5161 23.7978 3.5561C25.6272 1.57744 28.0632 0.606771 31.1058 0.644103C32.5805 0.644103 33.8872 0.877437 35.0258 1.3441C36.1645 1.7921 37.3312 2.5481 38.5258 3.6121Z" fill="#0088CC"/>
<path d="M55.1777 1.1201V4.4241H45.1257V9.0721H54.5337V12.3761H45.1257V17.6961H55.4857V21.0001H41.2057V1.1201H55.1777Z" fill="#0088CC"/>
<path d="M78.3716 2.85612C79.5663 3.99478 80.1636 5.50678 80.1636 7.39212C80.1636 9.27745 79.5663 10.7895 78.3716 11.9281C77.1956 13.0668 75.609 13.6361 73.6116 13.6361H67.9556V21.0001H64.0356V1.12012H73.6116C75.609 1.12012 77.1956 1.69878 78.3716 2.85612ZM72.9116 4.36812H67.9556V10.3881H72.9116C73.957 10.3881 74.7783 10.1268 75.3756 9.60412C75.973 9.08145 76.2716 8.34412 76.2716 7.39212C76.2716 6.44012 75.973 5.70279 75.3756 5.18012C74.797 4.63878 73.9756 4.36812 72.9116 4.36812Z" fill="white"/>
<path d="M93.2701 16.4081L95.3141 18.6481C94.3247 19.6561 93.326 20.3748 92.3181 20.8041C91.3101 21.2335 90.1807 21.4481 88.9301 21.4481C86.6341 21.4481 84.8047 20.7668 83.4421 19.4041C82.0981 18.0415 81.4261 16.2121 81.4261 13.9161C81.4261 11.6575 82.0794 9.80945 83.3861 8.37212C84.6927 6.93478 86.4381 6.21612 88.6221 6.21612C90.7501 6.21612 92.3927 6.84145 93.5501 8.09212C94.7261 9.34278 95.3141 11.0975 95.3141 13.3561C95.3141 13.7481 95.2954 14.2241 95.2581 14.7841H84.982C85.15 15.9228 85.57 16.8095 86.2421 17.4441C86.9327 18.0601 87.8567 18.3681 89.0141 18.3681C89.8167 18.3681 90.4981 18.2281 91.0581 17.9481C91.6554 17.6681 92.3927 17.1548 93.2701 16.4081ZM85.0661 12.1801H91.7581C91.6834 11.2095 91.3567 10.4535 90.7781 9.91212C90.2181 9.35212 89.4621 9.07212 88.5101 9.07212C86.6621 9.07212 85.5141 10.1081 85.0661 12.1801Z" fill="white"/>
<path d="M108.041 9.63212H101.545V21.0001H97.9054V6.69212H108.041V9.63212Z" fill="white"/>
<path d="M119.526 6.69212H123.222L117.706 22.5961C117.22 23.9775 116.595 24.9668 115.83 25.5641C115.083 26.1615 114.056 26.4601 112.75 26.4601C111.704 26.4601 110.79 26.3388 110.006 26.0961L110.622 23.3801C111.2 23.4921 111.76 23.5481 112.302 23.5481C113.422 23.5481 114.178 22.9508 114.57 21.7561L109.194 6.69212H113.002L114.262 10.4441C115.288 13.5055 115.97 15.6521 116.306 16.8841C117.426 13.2255 118.088 11.0695 118.294 10.4161L119.526 6.69212Z" fill="white"/>
<path d="M122.597 20.9721L122.933 18.0881C123.381 18.1441 123.735 18.1721 123.997 18.1721C124.781 18.1161 125.275 17.8081 125.481 17.2481C125.686 16.6695 125.807 15.3348 125.845 13.2441L125.901 6.69212H137.437V21.0001H133.797V9.63212H129.205L129.149 13.3001C129.111 16.3055 128.803 18.3588 128.225 19.4601C127.646 20.5428 126.479 21.1215 124.725 21.1961C123.941 21.1961 123.231 21.1215 122.597 20.9721Z" fill="white"/>
<path d="M145.709 6.69212H153.101V21.0001H149.601V16.4081H147.361L143.805 21.0001H139.661L143.609 16.1001C142.545 15.7828 141.714 15.2228 141.117 14.4201C140.538 13.5988 140.249 12.6375 140.249 11.5361C140.249 10.0801 140.734 8.91345 141.705 8.03612C142.694 7.14012 144.029 6.69212 145.709 6.69212ZM149.601 13.4961V9.60412H146.157C145.429 9.60412 144.869 9.78145 144.477 10.1361C144.085 10.4721 143.889 10.9388 143.889 11.5361C143.889 12.1335 144.085 12.6095 144.477 12.9641C144.869 13.3188 145.429 13.4961 146.157 13.4961H149.601Z" fill="white"/>
<path d="M168.35 9.63212H163.646V21.0001H160.006V9.63212H155.302V6.69212H168.35V9.63212Z" fill="white"/>
<path d="M182.077 8.34412C183.477 9.74412 184.177 11.5735 184.177 13.8321C184.177 16.0908 183.477 17.9295 182.077 19.3481C180.696 20.7481 178.922 21.4481 176.757 21.4481C174.573 21.4481 172.781 20.7481 171.381 19.3481C170 17.9295 169.309 16.0908 169.309 13.8321C169.309 11.5735 170 9.74412 171.381 8.34412C172.781 6.92545 174.573 6.21612 176.757 6.21612C178.922 6.21612 180.696 6.92545 182.077 8.34412ZM173.005 13.8321C173.005 15.2135 173.341 16.3148 174.013 17.1361C174.704 17.9575 175.618 18.3681 176.757 18.3681C177.877 18.3681 178.773 17.9575 179.445 17.1361C180.136 16.3148 180.481 15.2135 180.481 13.8321C180.481 12.4695 180.136 11.3775 179.445 10.5561C178.773 9.71612 177.877 9.29612 176.757 9.29612C175.618 9.29612 174.704 9.71612 174.013 10.5561C173.341 11.3775 173.005 12.4695 173.005 13.8321Z" fill="white"/>
<path d="M199.123 8.37212C200.317 9.75345 200.915 11.5735 200.915 13.8321C200.915 16.0908 200.317 17.9201 199.123 19.3201C197.928 20.7015 196.407 21.3921 194.559 21.3921C192.673 21.3921 191.245 20.7668 190.275 19.5161V26.0401H186.635V6.69212H190.023V8.56812C191.049 7.03745 192.571 6.27212 194.587 6.27212C196.435 6.27212 197.947 6.97212 199.123 8.37212ZM196.267 17.0521C196.901 16.2495 197.219 15.1761 197.219 13.8321C197.219 12.4881 196.901 11.4148 196.267 10.6121C195.651 9.80945 194.811 9.40812 193.747 9.40812C192.683 9.40812 191.815 9.81878 191.143 10.6401C190.471 11.4428 190.135 12.5068 190.135 13.8321C190.135 15.1761 190.461 16.2495 191.115 17.0521C191.787 17.8361 192.655 18.2281 193.719 18.2281C194.783 18.2281 195.632 17.8361 196.267 17.0521Z" fill="white"/>
</svg>
