<svg width="60" height="60" viewBox="0 0 60 60" fill="none" xmlns="http://www.w3.org/2000/svg">
<path d="M29.9999 0C17.9046 0 8.06445 10.017 8.06445 22.3295C8.06445 29.2167 11.5477 37.576 18.4179 47.1753C23.4455 54.2005 28.3997 59.2107 28.6082 59.4207C28.9914 59.8065 29.4955 60 30.0002 60C30.4903 60 30.9807 59.8174 31.3609 59.4512C31.5699 59.25 36.5366 54.4426 41.5737 47.5145C48.4493 38.0573 51.9356 29.5839 51.9356 22.3294C51.9353 10.017 42.0949 0 29.9999 0ZM29.9999 31.9695C24.0866 31.9695 19.2759 27.1587 19.2759 21.2456C19.2759 15.3324 24.0867 10.5216 29.9999 10.5216C35.9131 10.5216 40.7239 15.3324 40.7239 21.2456C40.7239 27.1587 35.9129 31.9695 29.9999 31.9695Z" fill="#0088CC"/>
<circle cx="30" cy="23" r="18" fill="white"/>
<path d="M21.4968 24.0617V22.4759H25.9931V27.771H24.5352L24.4399 26.8706C23.8767 27.6142 22.9547 27.9861 21.674 27.9861C20.2297 27.9861 19.0897 27.5246 18.2541 26.6018C17.4184 25.6789 17.0005 24.4739 17.0005 22.9866C16.9824 21.5441 17.4229 20.3524 18.3222 19.4116C19.2214 18.4619 20.4068 17.996 21.8783 18.0139C22.714 18.0139 23.4452 18.1528 24.072 18.4306C24.7078 18.6994 25.3482 19.1563 25.9931 19.8014L24.7941 21.0244C24.24 20.5316 23.7404 20.1822 23.2953 19.9761C22.8593 19.77 22.3825 19.667 21.8647 19.667C20.9745 19.667 20.266 19.9627 19.7392 20.554C19.2124 21.1364 18.9489 21.9472 18.9489 22.9866C18.9489 24.0528 19.2033 24.8815 19.7119 25.4729C20.2206 26.0553 20.9246 26.3464 21.8238 26.3464C22.5868 26.3464 23.1818 26.1583 23.6087 25.782C24.0447 25.3967 24.2627 24.8726 24.2627 24.2096V24.0617H21.4968Z" fill="#0088CC"/>
<path d="M35.7471 19.4251L34.6299 20.7287C34.1575 20.3255 33.7306 20.0478 33.3491 19.8955C32.9767 19.7342 32.5679 19.6536 32.1228 19.6536C31.2417 19.6536 30.5378 19.9582 30.0109 20.5674C29.4932 21.1677 29.2343 21.9741 29.2343 22.9866C29.2343 23.999 29.4932 24.8143 30.0109 25.4326C30.5378 26.0418 31.2327 26.3464 32.0956 26.3464C32.577 26.3464 33.0085 26.2568 33.39 26.0777C33.7533 25.8985 34.2166 25.5804 34.7797 25.1234L35.897 26.4002C35.2884 26.9647 34.6889 27.3723 34.0985 27.6232C33.5171 27.8741 32.8586 27.9995 32.1228 27.9995C30.6786 28.0174 29.5068 27.547 28.6075 26.5884C27.7083 25.6297 27.2677 24.4246 27.2859 22.9731C27.2677 21.5306 27.6992 20.339 28.5803 19.3982C29.4705 18.4485 30.6559 17.9826 32.1365 18.0005C32.854 18.0005 33.4899 18.1125 34.044 18.3365C34.5981 18.5515 35.1658 18.9144 35.7471 19.4251Z" fill="#0088CC"/>
<path d="M43.8501 18.229V19.8148H38.9587V22.0458H43.5367V23.6317H38.9587V26.1852H44V27.771H37.0512V18.229H43.8501Z" fill="#0088CC"/>
</svg>
