<svg width="12" height="9" viewBox="0 0 12 9" fill="none" xmlns="http://www.w3.org/2000/svg">
<path d="M11.808 0.584683L11.4149 0.19161C11.2914 0.068 11.1267 0 10.9509 0C10.7751 0 10.6104 0.068 10.4868 0.19161L4.96361 5.71473L1.51278 2.2638C1.38927 2.14039 1.22449 2.07229 1.04868 2.07229C0.872976 2.07229 0.708293 2.14039 0.584684 2.2638L0.191512 2.65678C0.0679025 2.78058 0 2.94546 0 3.12107C0 3.29678 0.0679025 3.46156 0.191512 3.58517L4.08771 7.48117C4.09288 7.48848 4.09835 7.49531 4.10469 7.50156L4.49786 7.88819C4.62137 8.01131 4.78615 8.07287 4.96332 8.07287H4.96537C5.14127 8.07287 5.30605 8.01131 5.42937 7.88819L5.82264 7.49814C5.82898 7.4919 5.83435 7.48673 5.83757 7.48146L11.8079 1.51171C12.064 1.25619 12.064 0.840487 11.808 0.584683Z" fill="#0088CC"/>
</svg>
