<svg width="60" height="60" viewBox="0 0 60 60" fill="none" xmlns="http://www.w3.org/2000/svg">
<g clip-path="url(#clip0)">
<path d="M1.14554 8.87926C1.18262 8.92458 1.22107 8.96898 1.25998 9.01338C1.27509 9.03032 1.28973 9.04817 1.30484 9.06511C1.34055 9.10402 1.37762 9.14202 1.41425 9.18001C1.43347 9.20015 1.45224 9.22075 1.47192 9.24043L18.6051 26.3741C18.7768 26.5457 19.0015 26.6313 19.2267 26.6313C19.4515 26.6313 19.6767 26.5457 19.8484 26.3741C20.1917 26.0307 20.1917 25.4741 19.8484 25.1312L11.6672 16.9501L13.6873 14.93L21.9083 23.151C22.08 23.3226 22.3052 23.4087 22.53 23.4087C22.7547 23.4087 22.9799 23.3226 23.1516 23.151C23.4949 22.8076 23.4949 22.2515 23.1516 21.9081L14.9302 13.6867L16.9503 11.667L25.1214 19.8381C25.4647 20.1814 26.0209 20.1814 26.3642 19.8381C26.7075 19.4948 26.7075 18.9382 26.3642 18.5953L17.5724 9.80348C17.5724 9.80303 9.24109 1.47173 9.24109 1.47173C8.94949 1.18013 8.62906 0.933855 8.2894 0.733812C6.93213 -0.0677318 5.26083 -0.14189 3.84543 0.510882C3.77722 0.542467 3.71039 0.575426 3.64355 0.610216C3.63806 0.612963 3.63257 0.615709 3.62708 0.618456C3.5845 0.640886 3.54285 0.665148 3.50073 0.688951C3.47418 0.7036 3.44717 0.717791 3.42108 0.733355C3.16016 0.887163 2.91159 1.06844 2.67767 1.2758C2.60672 1.33898 2.53668 1.40352 2.46893 1.47173L1.47192 2.46874C1.45361 2.48705 1.43668 2.50627 1.41882 2.52458C1.38037 2.56441 1.34192 2.60378 1.30484 2.64452C1.29111 2.65962 1.27875 2.67519 1.26501 2.69029C1.22427 2.73653 1.18399 2.78276 1.14508 2.83037C1.14005 2.83632 1.13593 2.84227 1.13135 2.84776C0.443787 3.69692 0.0693359 4.74657 0.0693359 5.85481C0.0693359 6.96031 0.442413 8.00859 1.12723 8.85683C1.13364 8.86415 1.13913 8.87193 1.14554 8.87926ZM15.707 10.4238L10.424 15.7068L9.03647 14.3189L14.3191 9.03581L15.707 10.4238ZM2.59619 3.83791C2.60031 3.83333 2.60397 3.82829 2.60809 3.82372C2.64288 3.78572 2.67813 3.74819 2.71475 3.71157L3.71176 2.71456C4.72708 1.69924 6.28943 1.55733 7.45856 2.287C7.65036 2.40648 7.83163 2.54839 7.9978 2.71456L13.0762 7.79299L7.79318 13.076L2.71475 7.99761C2.6969 7.9793 2.6795 7.96053 2.66165 7.94176C2.64426 7.92345 2.6264 7.9056 2.60947 7.88683C2.59802 7.87447 2.58749 7.86119 2.57651 7.84883C2.55362 7.82228 2.53027 7.79619 2.5083 7.76964C2.50327 7.76323 2.49869 7.75682 2.49365 7.75041C1.57446 6.606 1.6088 4.94432 2.59619 3.83791Z" fill="#0088CC"/>
<path d="M55.2078 48.2282C54.6658 47.1625 53.9626 46.1934 53.1172 45.3479L41.3009 33.5317C40.9576 33.1883 40.4014 33.1883 40.0581 33.5317C39.7147 33.875 39.7147 34.4316 40.0581 34.7745L51.8743 46.5912C51.9691 46.686 52.0615 46.783 52.1522 46.8814C51.2801 47.3209 50.4704 47.8638 49.7384 48.495L38.0933 36.85C37.75 36.5067 37.1934 36.5067 36.8501 36.85C36.5067 37.1933 36.5067 37.75 36.8501 38.0928L48.4956 49.7383C47.8643 50.4698 47.3214 51.2796 46.8815 52.1517C46.7831 52.0615 46.6865 51.969 46.5917 51.8743L34.8304 40.1129C34.4871 39.7696 33.9309 39.7696 33.5876 40.1129C33.2442 40.4563 33.2442 41.0129 33.5876 41.3558L45.3484 53.1171C46.161 53.9296 47.0884 54.6094 48.1056 55.1422C48.1468 55.1637 48.187 55.1866 48.2287 55.2077L57.0933 59.7153C57.3812 59.8618 57.6866 59.9332 57.9873 59.9332C58.4876 59.9332 58.977 59.7354 59.3565 59.3559C59.9648 58.7476 60.1058 57.8595 59.7158 57.0928L55.2078 48.2282ZM58.1132 58.1131C58.0885 58.1378 58.0642 58.1534 58.0409 58.1626C57.9832 58.1854 57.9328 58.1685 57.904 58.1552C57.8985 58.1529 57.8935 58.1502 57.8898 58.1484L49.0247 53.6408C49.0179 53.6371 49.0115 53.6334 49.0046 53.6298C48.8934 53.573 48.7835 53.514 48.6746 53.4531C48.6448 53.4361 48.616 53.4183 48.5867 53.4014C48.5001 53.3519 48.4141 53.3016 48.3289 53.2489C48.3221 53.2448 48.3152 53.2402 48.3088 53.2356C49.3163 51.0658 51.0659 49.3158 53.2362 48.3083C53.2403 48.3151 53.2449 48.322 53.249 48.3289C53.3025 48.4149 53.3538 48.5028 53.4042 48.5907C53.4202 48.6182 53.4367 48.6456 53.4527 48.6731C53.5177 48.7894 53.5809 48.9066 53.6408 49.0247L58.1484 57.8893C58.1521 57.897 58.1585 57.9085 58.1635 57.9231C58.1686 57.9378 58.1732 57.9556 58.1736 57.9753C58.1754 58.0156 58.1626 58.0637 58.1132 58.1131Z" fill="#0088CC"/>
<path d="M59.4153 8.16603L51.8352 0.585479C51.4576 0.207824 50.9554 0 50.4212 0C49.8874 0 49.3853 0.207824 49.0076 0.585479L0.585479 49.0076C0.208282 49.3853 0 49.8874 0 50.4217C0 50.9554 0.207824 51.4576 0.585479 51.8352L8.16557 59.4153C8.55559 59.8053 9.06736 59.9999 9.5796 59.9999C10.0914 59.9999 10.6032 59.8053 10.9932 59.4153L59.4153 10.9932C60.1949 10.2136 60.1949 8.9456 59.4153 8.16603ZM6.96852 55.7322L1.82876 50.5919C1.77017 50.5338 1.75781 50.467 1.75781 50.4212C1.75781 50.3754 1.77017 50.309 1.82876 50.2505L50.2509 1.8283C50.309 1.77017 50.3759 1.75781 50.4212 1.75781C50.467 1.75781 50.5338 1.77017 50.5919 1.8283L55.7322 6.96852L50.7659 11.9343L48.6345 9.80299C48.2912 9.45967 47.735 9.45967 47.3917 9.80299C47.0484 10.1463 47.0484 10.703 47.3917 11.0458L49.5231 13.1776L46.1873 16.5133L45.2457 15.5717C44.9024 15.2284 44.3462 15.2284 44.0029 15.5717C43.6596 15.915 43.6596 16.4712 44.0029 16.8145L44.9445 17.7562L41.3689 21.3313L39.2376 19.1999C38.8947 18.8571 38.3381 18.8566 37.9948 19.1999C37.6514 19.5433 37.6514 20.0999 37.9948 20.4432L40.1261 22.5746L36.7904 25.9103L35.8488 24.9687C35.5055 24.6253 34.9488 24.6253 34.6059 24.9687C34.2626 25.312 34.2626 25.8686 34.6059 26.2115L35.5476 27.1531L31.972 30.7287L29.8406 28.5974C29.4973 28.254 28.9411 28.254 28.5978 28.5974C28.2545 28.9407 28.2545 29.4969 28.5978 29.8402L30.7292 31.9715L27.3934 35.3072L26.4518 34.3661C26.1085 34.0228 25.5519 34.0228 25.209 34.3661C24.8657 34.7094 24.8657 35.2656 25.209 35.6089L26.1506 36.5505L22.575 40.1257L20.4437 37.9943C20.1004 37.651 19.5442 37.651 19.2009 37.9943C18.8575 38.3376 18.8575 38.8938 19.2009 39.2371L21.3322 41.3685L17.9965 44.7047L17.0549 43.763C16.7115 43.4197 16.1549 43.4197 15.8116 43.763C15.4687 44.1059 15.4687 44.6625 15.812 45.0059L16.7537 45.9475L13.1781 49.5226L11.0467 47.3917C10.7034 47.0484 10.1468 47.0484 9.80391 47.3917C9.46058 47.7346 9.46058 48.2912 9.80391 48.6345L11.9352 50.7659L6.96852 55.7322ZM58.1725 9.75035L9.75035 58.1725C9.65605 58.2663 9.50315 58.2663 9.40886 58.1725L8.21181 56.975L56.975 8.21135L58.1725 9.40886C58.2663 9.5027 58.2663 9.65605 58.1725 9.75035Z" fill="#0088CC"/>
</g>
<defs>
<clipPath id="clip0">
<rect width="60" height="60" fill="white"/>
</clipPath>
</defs>
</svg>
