<svg width="60" height="60" viewBox="0 0 60 60" fill="none" xmlns="http://www.w3.org/2000/svg">
<path d="M56.2097 17.314C56.0683 16.7853 55.7291 16.3431 55.2548 16.0693L53.5304 15.0737C53.0562 14.8 52.5037 14.7272 51.9745 14.8691C51.4458 15.0105 51.0036 15.3497 50.7298 15.824L49.7008 17.606C49.2641 17.401 48.7738 17.3557 48.3018 17.482C47.7731 17.6239 47.3309 17.9631 47.0572 18.4373L46.9922 18.5495V10.957C46.9922 8.53363 45.0211 6.5625 42.5977 6.5625H36.1876C36.0443 5.57053 35.191 4.80469 34.1602 4.80469H31.1719V2.63672C31.1719 1.18286 29.989 0 28.5352 0H22.0898C20.636 0 19.4531 1.18286 19.4531 2.63672V4.80469H16.4648C15.434 4.80469 14.5802 5.57053 14.4374 6.5625H8.02734C5.60394 6.5625 3.63281 8.53363 3.63281 10.957V55.6055C3.63281 58.0289 5.60394 60 8.02734 60H35.4547C35.9399 60 36.3336 59.6068 36.3336 59.1211C36.3336 58.6354 35.9399 58.2422 35.4547 58.2422H8.02734C6.57349 58.2422 5.39062 57.0593 5.39062 55.6055V10.957C5.39062 9.50317 6.57349 8.32031 8.02734 8.32031H14.4141V12.5977C14.4141 13.7283 15.3342 14.6484 16.4648 14.6484H34.1602C35.2908 14.6484 36.2109 13.7283 36.2109 12.5977V11.7773H41.7773V27.5821L32.834 43.0724C32.5108 43.6317 32.3643 44.268 32.4106 44.9126L32.8024 50.403C32.8368 50.8832 33.105 51.3158 33.5197 51.5602C33.7486 51.6948 34.0054 51.763 34.2636 51.763C34.4733 51.763 34.6834 51.7177 34.8793 51.627L39.9321 49.2838C40.5373 49.0031 41.0335 48.5495 41.3667 47.9723L41.7773 47.2614V54.7852H8.84766V11.7773H11.1914C11.6766 11.7773 12.0703 11.3841 12.0703 10.8984C12.0703 10.4128 11.6766 10.0195 11.1914 10.0195H8.55469C7.74673 10.0195 7.08984 10.6764 7.08984 11.4844V55.0781C7.08984 55.8861 7.74673 56.543 8.55469 56.543H42.0703C42.8778 56.543 43.5352 55.8861 43.5352 55.0781V44.2163L45.2344 41.2733V55.6055C45.2344 57.0593 44.0515 58.2422 42.5977 58.2422H39.5558C39.0706 58.2422 38.6769 58.6354 38.6769 59.1211C38.6769 59.6063 39.0706 60 39.5558 60H42.5977C45.0206 60 46.9922 58.0284 46.9922 55.6055V38.2288L54.407 25.3857L55.5785 23.3569C55.8522 22.8827 55.925 22.3302 55.7831 21.8015C55.6567 21.3295 55.3725 20.928 54.976 20.652L56.0051 18.8699C56.2788 18.3957 56.3516 17.8432 56.2097 17.314ZM52.2519 16.7029C52.3325 16.5633 52.5114 16.5152 52.6515 16.5958L54.3759 17.5914C54.467 17.644 54.5004 17.7255 54.5123 17.769C54.5238 17.813 54.5357 17.8995 54.483 17.991L53.4581 19.7658L51.2274 18.4781L52.2519 16.7029ZM48.5793 19.3163C48.6319 19.2252 48.7134 19.1917 48.7569 19.1803C48.8008 19.1679 48.8873 19.1565 48.9784 19.2091L53.9488 22.0789C54.0404 22.1315 54.0738 22.2125 54.0852 22.2565C54.0971 22.3 54.1086 22.3869 54.0559 22.478L53.324 23.7456L47.8477 20.5838L48.5793 19.3163ZM21.2109 2.63672C21.2109 2.15195 21.6051 1.75781 22.0898 1.75781H28.5352C29.0199 1.75781 29.4141 2.15195 29.4141 2.63672V4.80469H21.2109V2.63672ZM34.4531 12.5977C34.4531 12.7592 34.3217 12.8906 34.1602 12.8906H16.4648C16.3033 12.8906 16.1719 12.7592 16.1719 12.5977V6.85547C16.1719 6.69388 16.3033 6.5625 16.4648 6.5625H34.1602C34.3217 6.5625 34.4531 6.69388 34.4531 6.85547V12.5977ZM42.0703 10.0195H36.2109V8.32031H42.5977C44.0515 8.32031 45.2344 9.50317 45.2344 10.957V21.5945L43.5352 24.5375V11.4844C43.5352 10.6764 42.8783 10.0195 42.0703 10.0195ZM46.9688 22.1063L52.4451 25.2681L41.6702 43.9311L36.1935 40.7693L46.9688 22.1063ZM39.8447 47.0934C39.6931 47.3557 39.4675 47.5616 39.1928 47.6889V47.6894L34.5255 49.8537L34.1638 44.7876C34.1428 44.4946 34.2096 44.2058 34.3565 43.9517L35.3146 42.2914L40.7913 45.4532L39.8447 47.0934Z" fill="#0088CC"/>
<path d="M12.7113 49.0357C12.8784 49.1844 13.0871 49.2572 13.2945 49.2572C13.5371 49.2572 13.7784 49.1574 13.9519 48.962L15.6946 47L17.0436 48.609C17.3141 48.9322 17.711 49.1227 18.1322 49.1327C18.5538 49.14 18.9584 48.9707 19.2436 48.6608L20.8659 46.8993L22.664 48.9345C22.9858 49.2984 23.5411 49.3328 23.9046 49.0114C24.2685 48.6901 24.3028 48.1348 23.9815 47.7709L21.9682 45.4921C21.694 45.1818 21.2994 45.0014 20.8856 44.9973C20.8806 44.9968 20.8755 44.9968 20.8705 44.9968C20.4617 44.9968 20.0699 45.1685 19.7929 45.4692L18.1766 47.2243L16.8234 45.6107C16.5497 45.2843 16.1482 45.0934 15.7216 45.087C15.2949 45.0774 14.8889 45.2605 14.606 45.5791L12.6381 47.7947C12.3154 48.1577 12.3483 48.7134 12.7113 49.0357Z" fill="#0088CC"/>
<path d="M38.6426 19.3945C38.6426 18.9088 38.2489 18.5156 37.7637 18.5156H12.8027C12.3175 18.5156 11.9238 18.9088 11.9238 19.3945C11.9238 19.8802 12.3175 20.2734 12.8027 20.2734H37.7637C38.2489 20.2734 38.6426 19.8802 38.6426 19.3945Z" fill="#0088CC"/>
<path d="M12.9199 24.9609H23.3496C23.8348 24.9609 24.2285 24.5677 24.2285 24.082C24.2285 23.5963 23.8348 23.2031 23.3496 23.2031H12.9199C12.4347 23.2031 12.041 23.5963 12.041 24.082C12.041 24.5677 12.4347 24.9609 12.9199 24.9609Z" fill="#0088CC"/>
<path d="M32.4316 24.082C32.4316 23.5963 32.038 23.2031 31.5527 23.2031H27.4512C26.9659 23.2031 26.5723 23.5963 26.5723 24.082C26.5723 24.5677 26.9659 24.9609 27.4512 24.9609H31.5527C32.038 24.9609 32.4316 24.5677 32.4316 24.082Z" fill="#0088CC"/>
<path d="M12.9199 29.6484H21.3574C21.8427 29.6484 22.2363 29.2552 22.2363 28.7695C22.2363 28.2838 21.8427 27.8906 21.3574 27.8906H12.9199C12.4347 27.8906 12.041 28.2838 12.041 28.7695C12.041 29.2552 12.4347 29.6484 12.9199 29.6484Z" fill="#0088CC"/>
<path d="M29.0918 27.8906H25.1074C24.6222 27.8906 24.2285 28.2838 24.2285 28.7695C24.2285 29.2552 24.6222 29.6484 25.1074 29.6484H29.0918C29.577 29.6484 29.9707 29.2552 29.9707 28.7695C29.9707 28.2838 29.577 27.8906 29.0918 27.8906Z" fill="#0088CC"/>
<path d="M12.9199 34.3359H19.0137C19.4989 34.3359 19.8926 33.9427 19.8926 33.457C19.8926 32.9713 19.4989 32.5781 19.0137 32.5781H12.9199C12.4347 32.5781 12.041 32.9713 12.041 33.457C12.041 33.9427 12.4347 34.3359 12.9199 34.3359Z" fill="#0088CC"/>
<path d="M29.9707 33.457C29.9707 32.9713 29.577 32.5781 29.0918 32.5781H22.7637C22.2784 32.5781 21.8848 32.9713 21.8848 33.457C21.8848 33.9427 22.2784 34.3359 22.7637 34.3359H29.0918C29.577 34.3359 29.9707 33.9427 29.9707 33.457Z" fill="#0088CC"/>
<path d="M12.9199 39.0234H19.0137C19.4989 39.0234 19.8926 38.6302 19.8926 38.1445C19.8926 37.6588 19.4989 37.2656 19.0137 37.2656H12.9199C12.4347 37.2656 12.041 37.6588 12.041 38.1445C12.041 38.6302 12.4347 39.0234 12.9199 39.0234Z" fill="#0088CC"/>
</svg>
