<svg width="60" height="60" viewBox="0 0 60 60" fill="none" xmlns="http://www.w3.org/2000/svg">
<g clip-path="url(#clip0)">
<path d="M11.2783 9.375C10.7158 9.375 10.3408 9.75 10.3408 10.3125C10.3408 10.875 10.7158 11.25 11.2783 11.25H12.2158C12.7783 11.25 13.1533 10.875 13.1533 10.3125C13.1533 9.75 12.7783 9.375 12.2158 9.375H11.2783Z" fill="#0088CC"/>
<path d="M15.0283 9.375C14.4658 9.375 14.0908 9.75 14.0908 10.3125C14.0908 10.875 14.4658 11.25 15.0283 11.25H15.9658C16.5283 11.25 16.9033 10.875 16.9033 10.3125C16.9033 9.75 16.5283 9.375 15.9658 9.375H15.0283Z" fill="#0088CC"/>
<path d="M7.52832 11.25H8.46582C9.02832 11.25 9.40332 10.875 9.40332 10.3125C9.40332 9.75 9.02832 9.375 8.46582 9.375H7.52832C6.96582 9.375 6.59082 9.75 6.59082 10.3125C6.59082 10.875 6.96582 11.25 7.52832 11.25Z" fill="#0088CC"/>
<path d="M27.2158 38.4375H26.2783C25.7158 38.4375 25.3408 38.8125 25.3408 39.375C25.3408 39.9375 25.7158 40.3125 26.2783 40.3125H27.2158C27.7783 40.3125 28.1533 39.9375 28.1533 39.375C28.1533 38.8125 27.7783 38.4375 27.2158 38.4375Z" fill="#0088CC"/>
<path d="M23.4658 40.3125C24.0283 40.3125 24.4033 39.9375 24.4033 39.375C24.4033 38.8125 24.0283 38.4375 23.4658 38.4375H22.5283C21.9658 38.4375 21.5908 38.8125 21.5908 39.375C21.5908 39.9375 21.9658 40.3125 22.5283 40.3125H23.4658Z" fill="#0088CC"/>
<path d="M47.6533 30.1875C46.8096 30.0938 45.9658 30 45.0283 30V10.3125C45.0283 10.0312 44.9346 9.84375 44.7471 9.65625L35.3721 0.28125C35.1846 0.09375 34.9971 0 34.7158 0H0.96582C0.40332 0 0.0283203 0.375 0.0283203 0.9375V59.0625C0.0283203 59.5312 0.40332 60 0.96582 60H44.0908C44.1846 60 44.2783 60 44.3721 59.9062C44.5596 59.9062 44.8408 59.9062 45.0283 59.9062C52.2471 59.9062 58.4346 54.6562 59.7471 47.5312C61.1533 39.375 55.8096 31.5938 47.6533 30.1875ZM35.6533 3.1875L41.8408 9.375H35.6533V3.1875ZM1.90332 58.125V1.875H33.7783V10.3125C33.7783 10.875 34.1533 11.25 34.7158 11.25H43.1533V30.0937C36.5908 30.9375 31.5283 35.8125 30.4033 42.375C29.1846 48.8438 32.3721 55.3125 37.7158 58.125H1.90332ZM57.8721 47.25C56.7471 53.5312 51.3096 58.125 45.0283 58.125C44.7471 58.125 44.3721 58.125 44.0908 58.125C43.6221 58.125 43.1533 58.0312 42.7783 57.9375C35.6533 56.7188 30.9658 49.875 32.1846 42.75C33.2158 36.75 38.1846 32.3438 44.0908 31.875C44.3721 31.875 44.6533 31.875 45.0283 31.875C45.7783 31.875 46.5283 31.9688 47.2783 32.0625C54.4033 33.2812 59.0908 40.125 57.8721 47.25Z" fill="#0088CC"/>
<path d="M25.3408 52.5H7.52832C6.96582 52.5 6.59082 52.875 6.59082 53.4375C6.59082 54 6.96582 54.375 7.52832 54.375H25.3408C25.9033 54.375 26.2783 54 26.2783 53.4375C26.2783 52.875 25.9033 52.5 25.3408 52.5Z" fill="#0088CC"/>
<path d="M7.52832 7.5H19.7158C20.2783 7.5 20.6533 7.125 20.6533 6.5625C20.6533 6 20.2783 5.625 19.7158 5.625H7.52832C6.96582 5.625 6.59082 6 6.59082 6.5625C6.59082 7.125 6.96582 7.5 7.52832 7.5Z" fill="#0088CC"/>
<path d="M7.52832 17.8125H37.5283C38.0908 17.8125 38.4658 17.4375 38.4658 16.875C38.4658 16.3125 38.0908 15.9375 37.5283 15.9375H7.52832C6.96582 15.9375 6.59082 16.3125 6.59082 16.875C6.59082 17.4375 6.96582 17.8125 7.52832 17.8125Z" fill="#0088CC"/>
<path d="M7.52832 21.5625H37.5283C38.0908 21.5625 38.4658 21.1875 38.4658 20.625C38.4658 20.0625 38.0908 19.6875 37.5283 19.6875H7.52832C6.96582 19.6875 6.59082 20.0625 6.59082 20.625C6.59082 21.1875 6.96582 21.5625 7.52832 21.5625Z" fill="#0088CC"/>
<path d="M7.52832 25.3125H37.5283C38.0908 25.3125 38.4658 24.9375 38.4658 24.375C38.4658 23.8125 38.0908 23.4375 37.5283 23.4375H7.52832C6.96582 23.4375 6.59082 23.8125 6.59082 24.375C6.59082 24.9375 6.96582 25.3125 7.52832 25.3125Z" fill="#0088CC"/>
<path d="M7.52832 29.0625H37.5283C38.0908 29.0625 38.4658 28.6875 38.4658 28.125C38.4658 27.5625 38.0908 27.1875 37.5283 27.1875H7.52832C6.96582 27.1875 6.59082 27.5625 6.59082 28.125C6.59082 28.6875 6.96582 29.0625 7.52832 29.0625Z" fill="#0088CC"/>
<path d="M7.52832 32.8125H33.7783C34.3408 32.8125 34.7158 32.4375 34.7158 31.875C34.7158 31.3125 34.3408 30.9375 33.7783 30.9375H7.52832C6.96582 30.9375 6.59082 31.3125 6.59082 31.875C6.59082 32.4375 6.96582 32.8125 7.52832 32.8125Z" fill="#0088CC"/>
<path d="M30.9658 35.625C30.9658 35.0625 30.5908 34.6875 30.0283 34.6875H7.52832C6.96582 34.6875 6.59082 35.0625 6.59082 35.625C6.59082 36.1875 6.96582 36.5625 7.52832 36.5625H30.0283C30.5908 36.5625 30.9658 36.1875 30.9658 35.625Z" fill="#0088CC"/>
<path d="M7.52832 40.3125H19.7158C20.2783 40.3125 20.6533 39.9375 20.6533 39.375C20.6533 38.8125 20.2783 38.4375 19.7158 38.4375H7.52832C6.96582 38.4375 6.59082 38.8125 6.59082 39.375C6.59082 39.9375 6.96582 40.3125 7.52832 40.3125Z" fill="#0088CC"/>
<path d="M27.2158 42.1875H7.52832C6.96582 42.1875 6.59082 42.5625 6.59082 43.125C6.59082 43.6875 6.96582 44.0625 7.52832 44.0625H27.2158C27.7783 44.0625 28.1533 43.6875 28.1533 43.125C28.1533 42.5625 27.7783 42.1875 27.2158 42.1875Z" fill="#0088CC"/>
<path d="M27.2158 45.9375H7.52832C6.96582 45.9375 6.59082 46.3125 6.59082 46.875C6.59082 47.4375 6.96582 47.8125 7.52832 47.8125H27.2158C27.7783 47.8125 28.1533 47.4375 28.1533 46.875C28.1533 46.3125 27.7783 45.9375 27.2158 45.9375Z" fill="#0088CC"/>
<path d="M51.0283 37.875L40.3408 48.375L37.2471 45.2812C36.8721 44.9062 36.3096 44.9062 35.9346 45.2812C35.5596 45.6562 35.5596 46.2187 35.9346 46.5937L39.6846 50.3437C39.8721 50.5312 40.1533 50.625 40.3408 50.625C40.6221 50.625 40.8096 50.5312 40.9971 50.3437L52.3408 39.1875C52.7158 38.8125 52.7158 38.25 52.3408 37.875C51.9658 37.5 51.4033 37.5 51.0283 37.875Z" fill="#0088CC"/>
</g>
<defs>
<clipPath id="clip0">
<rect width="60" height="60" fill="white"/>
</clipPath>
</defs>
</svg>
