<?xml version="1.0" encoding="utf-8"?><svg xmlns="http://www.w3.org/2000/svg" xmlns:xlink="http://www.w3.org/1999/xlink"><symbol viewBox="0 0 22 24" id="basket" xmlns="http://www.w3.org/2000/svg"><g clip-path="url(#aclip0)"><path d="M10.363 18.443a2.046 2.046 0 00-2.045 2.042 2.046 2.046 0 004.09 0 2.046 2.046 0 00-2.045-2.042zm6.134 0a2.046 2.046 0 00-2.045 2.042 2.046 2.046 0 004.089 0 2.046 2.046 0 00-2.044-2.042zm3.978-8.199L7.413 6.891a.614.614 0 00-.75.73L8.67 16.4h-.786L5.482 5.895a.613.613 0 00-.474-.464l-4.27-.882A.614.614 0 00.489 5.75l3.885.802L6.797 17.15a.613.613 0 00.598.477h12.07a.615.615 0 00.607-.53l.858-6.175a.613.613 0 00-.455-.678zm-8.14 3.91a.613.613 0 01-1.227 0v-2.696a.613.613 0 011.227 0v2.696zm2.625 0a.613.613 0 01-1.227 0v-1.88a.613.613 0 011.227 0v1.88zm2.625 0a.613.613 0 01-1.227 0v-1.226a.613.613 0 011.227 0v1.226z"/></g><path fill-rule="evenodd" clip-rule="evenodd" d="M16.268 4.568a2.996 2.996 0 00-1.693-.523c-.627 0-1.21.193-1.693.523-.28-.843-.492-1.752-.492-2.383C12.39.98 13.37 0 14.575 0s2.185.98 2.185 2.185c0 .631-.212 1.54-.492 2.383zm-4.722 2.274l.024.006v-.011l-.024.005zm4.972 1.217c-1.333-.33-2.766-.681-4.129-1.013a2.185 2.185 0 114.129 1.013zm4.436 1.103c-.866-.217-2.155-.538-3.618-.9a2.995 2.995 0 00.243-1.425c.87.18 1.762.45 2.308.765.596.344.969.928 1.067 1.56zM9.869 6.439c-.36-.086-.706-.167-1.03-.243a2.19 2.19 0 01-.376-2.667 2.188 2.188 0 013.147-.7c.098.738.338 1.599.61 2.353a3.01 3.01 0 00-.449.774c-.628.113-1.305.278-1.902.483zm10.124.075a3.43 3.43 0 01-.217.114c-.696-.295-1.587-.526-2.397-.672a3.01 3.01 0 00-.449-.774c.262-.727.494-1.553.599-2.273.095-.067.189-.128.278-.18a2.188 2.188 0 012.986.8 2.188 2.188 0 01-.8 2.985z"/><defs><clipPath id="aclip0"><path transform="translate(0 3.064)" d="M0 0h20.936v20.936H0z"/></clipPath></defs></symbol><symbol viewBox="0 0 344.96 344.96" id="check" xmlns="http://www.w3.org/2000/svg"><g data-name="Слой 2"><path d="M321.85 86.24l-40-23.11-23.1-40H212.5L172.48 0l-40 23.11H86.24l-23.11 40-40 23.1v46.21L0 172.48l23.11 40v46.21l40 23.11 23.11 40h46.21l40 23.1 40-23.11h46.21l23.11-40 40-23.11V212.5l23.11-40-23.11-40V86.24zM156.91 243.07a16.79 16.79 0 01-23.34 0l-50.45-50.44a16.19 16.19 0 010-22.89l13.35-13.35a16.19 16.19 0 0122.89 0l25.87 25.87 80.34-80.35a16.19 16.19 0 0122.89 0l13.35 13.35a16.19 16.19 0 010 22.89z" data-name="Capa 1"/></g></symbol><symbol viewBox="0 0 9 15" id="chevron-left" xmlns="http://www.w3.org/2000/svg"><path d="M.333 6.915L7.008.24a.815.815 0 01.58-.24c.22 0 .426.085.58.24l.492.49c.32.32.32.84 0 1.16L3.055 7.498l5.612 5.611a.82.82 0 010 1.161l-.492.491a.815.815 0 01-.58.24.815.815 0 01-.58-.24L.333 8.08a.816.816 0 01-.24-.583c0-.22.085-.427.24-.582z"/></symbol><symbol viewBox="0 0 9 15" id="chevron-right" xmlns="http://www.w3.org/2000/svg"><path d="M8.667 6.915L1.992.24a.815.815 0 00-.58-.24.815.815 0 00-.58.24L.34.73a.82.82 0 000 1.16l5.605 5.606-5.612 5.611a.815.815 0 00-.24.58c0 .22.086.426.24.581l.492.491c.154.155.36.24.58.24.22 0 .426-.085.58-.24l6.682-6.68a.816.816 0 00.24-.583.815.815 0 00-.24-.582z"/></symbol><symbol viewBox="0 0 24 24" id="fb" xmlns="http://www.w3.org/2000/svg"><path d="M13.397 20.997v-8.196h2.765l.411-3.209h-3.176V7.548c0-.926.258-1.56 1.587-1.56h1.684v-2.86A22.108 22.108 0 0014.201 3c-2.444 0-4.122 1.492-4.122 4.231v2.355H7.332v3.21h2.753v8.201h3.312z"/></symbol><symbol viewBox="0 0 24 24" id="instagram" xmlns="http://www.w3.org/2000/svg"><path d="M11.999 7.377a4.624 4.624 0 100 9.248 4.624 4.624 0 000-9.248zm0 7.627a3.004 3.004 0 110-6.008 3.004 3.004 0 010 6.008zm4.807-6.719a1.078 1.078 0 100-2.156 1.078 1.078 0 000 2.156z"/><path d="M20.533 6.11A4.605 4.605 0 0017.9 3.48a6.607 6.607 0 00-2.186-.42c-.963-.042-1.268-.054-3.71-.054s-2.755 0-3.71.054a6.554 6.554 0 00-2.184.42 4.6 4.6 0 00-2.633 2.63 6.585 6.585 0 00-.419 2.186c-.043.962-.056 1.267-.056 3.71 0 2.442 0 2.753.056 3.71.015.748.156 1.486.419 2.187a4.61 4.61 0 002.634 2.632 6.583 6.583 0 002.185.45c.963.042 1.268.055 3.71.055s2.755 0 3.71-.055a6.616 6.616 0 002.186-.42 4.613 4.613 0 002.633-2.632c.263-.7.404-1.438.419-2.186.043-.962.056-1.267.056-3.71s0-2.753-.056-3.71a6.583 6.583 0 00-.421-2.217zm-1.218 9.533a5.046 5.046 0 01-.311 1.688 2.987 2.987 0 01-1.712 1.71c-.535.2-1.1.305-1.67.312-.95.044-1.218.055-3.654.055-2.438 0-2.687 0-3.655-.055a4.961 4.961 0 01-1.67-.311 2.984 2.984 0 01-1.718-1.711 5.08 5.08 0 01-.311-1.67c-.043-.95-.053-1.217-.053-3.653 0-2.437 0-2.686.053-3.655a5.038 5.038 0 01.311-1.687c.305-.79.93-1.41 1.719-1.712a5.01 5.01 0 011.669-.311c.95-.043 1.218-.055 3.655-.055s2.687 0 3.654.055a4.96 4.96 0 011.67.31 2.99 2.99 0 011.712 1.713 5.06 5.06 0 01.311 1.669c.043.95.054 1.218.054 3.655 0 2.436 0 2.698-.043 3.654h-.011v-.001z"/></symbol><symbol viewBox="0 0 24 24" id="question" xmlns="http://www.w3.org/2000/svg"><path d="M5 19h4.414L23.057 5.357a3.125 3.125 0 000-4.414 3.194 3.194 0 00-4.414 0L5 14.586V19zm2-3.586L20.057 2.357a1.148 1.148 0 011.586 0 1.123 1.123 0 010 1.586L8.586 17H7v-1.586z"/><path d="M23.621 7.622L22 9.243V16h-6v6H2V3a1 1 0 011-1h11.758L16.379.379c.146-.135.3-.262.461-.379H3a3 3 0 00-3 3v21h18.414L24 18.414V7.161c-.117.16-.244.315-.379.461zM18 21.586V18h3.586L18 21.586z"/></symbol><symbol viewBox="0 0 24 24" id="telegram" xmlns="http://www.w3.org/2000/svg"><g clip-path="url(#hclip0)"><path d="M9.415 14.896L9.02 20.48c.569 0 .816-.242 1.11-.537l2.664-2.547 5.516 4.042c1.01.563 1.727.269 2-.931l3.622-16.975c.32-1.49-.542-2.08-1.527-1.711L1.115 9.974c-1.453.563-1.432 1.374-.248 1.742l5.443 1.695 12.643-7.916c.594-.395 1.136-.174.689.216L9.415 14.896z"/></g><defs><clipPath id="hclip0"><path d="M0 0h24v24H0z"/></clipPath></defs></symbol><symbol viewBox="0 0 24 24" id="viber" xmlns="http://www.w3.org/2000/svg"><path d="M19.259 9.997c.025-2.82-2.379-5.403-5.354-5.763-.062-.007-.124-.02-.193-.032-.149-.024-.298-.05-.453-.05-.609 0-.77.43-.814.684-.043.248 0 .46.118.621.205.273.56.323.845.36a9.1 9.1 0 01.23.038c2.67.596 3.571 1.534 4.012 4.186.013.062.019.143.019.23.018.317.062.975.77.975.056 0 .124-.006.186-.013.659-.099.64-.701.628-.993 0-.081-.007-.162 0-.212.006-.006.006-.018.006-.03z"/><path d="M13.091 3.202c.081.007.156.013.218.02 4.385.676 6.404 2.757 6.969 7.18.012.074.012.167.012.266.007.348.019 1.063.79 1.081h.024c.242 0 .435-.074.571-.217.243-.249.224-.628.212-.926-.007-.074-.007-.143-.007-.205.056-4.528-3.863-8.627-8.385-8.782h-.112c-.043 0-.099-.007-.161-.007a2.588 2.588 0 00-.236-.012c-.72 0-.857.51-.876.82-.03.708.652.758.982.782zm6.969 12.92a4.838 4.838 0 01-.28-.218c-.477-.385-.987-.739-1.483-1.087l-.305-.21c-.633-.442-1.199-.66-1.739-.66-.72 0-1.354.398-1.876 1.187-.23.348-.51.522-.857.522a1.66 1.66 0 01-.69-.174c-2.037-.925-3.496-2.342-4.329-4.217-.403-.907-.273-1.497.435-1.976.404-.273 1.15-.782 1.1-1.757-.063-1.106-2.497-4.429-3.528-4.808a2.005 2.005 0 00-1.36-.006c-1.18.398-2.032 1.093-2.454 2.019-.41.888-.391 1.938.056 3.024 1.28 3.15 3.087 5.889 5.354 8.156 2.224 2.217 4.956 4.03 8.124 5.397.286.125.584.193.801.236.075.019.137.031.187.044.025.006.05.012.08.012h.025c1.491 0 3.28-1.36 3.826-2.913.504-1.36-.378-2.03-1.087-2.571zm-6.31-9.323c-.255.006-.79.018-.976.559-.087.254-.074.472.031.652.156.267.46.348.74.391 1 .162 1.515.715 1.614 1.74.05.478.373.813.783.813.031 0 .062 0 .093-.006.497-.062.74-.423.715-1.087.006-.69-.355-1.472-.97-2.1-.614-.627-1.353-.98-2.03-.962z"/></symbol><symbol viewBox="0 0 20 20" id="visibility" xmlns="http://www.w3.org/2000/svg"><g clip-path="url(#jclip0)"><path d="M10 7.272A2.73 2.73 0 007.273 10 2.73 2.73 0 0010 12.727 2.73 2.73 0 0012.727 10 2.73 2.73 0 0010 7.272z"/><path d="M10 3.182C5.455 3.182 1.573 6.009 0 10c1.573 3.99 5.455 6.818 10 6.818 4.55 0 8.427-2.827 10-6.818-1.573-3.991-5.45-6.818-10-6.818zm0 11.363A4.547 4.547 0 015.455 10 4.547 4.547 0 0110 5.454 4.547 4.547 0 0114.546 10 4.547 4.547 0 0110 14.545z"/></g><defs><clipPath id="jclip0"><path d="M0 0h20v20H0z"/></clipPath></defs></symbol><symbol viewBox="0 0 24 24" id="vk" xmlns="http://www.w3.org/2000/svg"><path d="M21.579 6.855c.14-.465 0-.806-.662-.806h-2.193c-.558 0-.813.295-.953.619 0 0-1.115 2.719-2.695 4.482-.51.513-.743.675-1.021.675-.139 0-.341-.162-.341-.627V6.855c0-.558-.161-.806-.626-.806H9.642c-.348 0-.558.258-.558.504 0 .528.79.65.871 2.138v3.228c0 .707-.127.836-.407.836-.743 0-2.551-2.73-3.624-5.853-.209-.607-.42-.852-.98-.852H2.752c-.627 0-.752.295-.752.619 0 .582.743 3.462 3.461 7.27 1.812 2.602 4.363 4.012 6.687 4.012 1.393 0 1.565-.313 1.565-.853v-1.966c0-.626.133-.752.574-.752.324 0 .882.164 2.183 1.417 1.486 1.486 1.732 2.153 2.567 2.153h2.192c.626 0 .939-.313.759-.931-.197-.615-.907-1.51-1.849-2.57-.512-.603-1.277-1.253-1.51-1.578-.325-.42-.231-.604 0-.976.001 0 2.672-3.761 2.95-5.04z"/></symbol><symbol viewBox="0 0 24 24" id="whatsapp" xmlns="http://www.w3.org/2000/svg"><path d="M17.584 13.213c-.043-.02-1.619-.796-1.895-.896a1.077 1.077 0 00-.366-.08c-.212 0-.393.106-.53.313-.16.233-.632.79-.78.955-.022.021-.049.048-.064.048-.016 0-.26-.1-.33-.133-1.687-.732-2.971-2.5-3.147-2.796-.026-.043-.026-.064-.026-.064.005-.021.064-.08.09-.112a5.39 5.39 0 00.27-.302c.043-.053.086-.101.128-.149.133-.154.191-.27.255-.408l.037-.07a.724.724 0 00-.021-.69c-.037-.074-.7-1.676-.775-1.846-.17-.409-.393-.595-.706-.595-.026 0 0 0-.122.006-.149.005-.955.111-1.31.334-.378.239-1.02.998-1.02 2.33 0 1.2.764 2.335 1.088 2.765.01.01.021.032.043.064 1.252 1.83 2.818 3.19 4.4 3.82 1.522.611 2.244.68 2.658.68.175 0 .313-.016.43-.027l.08-.005c.525-.048 1.682-.647 1.947-1.38.207-.578.26-1.204.122-1.433-.09-.153-.254-.233-.456-.329z"/><path d="M12.59.8C6.74.8 1.98 5.523 1.98 11.33c0 1.878.505 3.714 1.455 5.322l-1.82 5.377a.282.282 0 00.063.286.29.29 0 00.287.074l5.604-1.783a10.712 10.712 0 005.02 1.253c5.849 0 10.61-4.724 10.61-10.53C23.198 5.523 18.438.8 12.588.8zm0 18.867a8.399 8.399 0 01-4.623-1.38.276.276 0 00-.154-.048.465.465 0 00-.085.01l-2.807.892.907-2.674a.274.274 0 00-.037-.255 8.224 8.224 0 01-1.597-4.888c0-4.596 3.768-8.337 8.4-8.337 4.634 0 8.402 3.741 8.402 8.337-.005 4.601-3.773 8.343-8.406 8.343z"/></symbol></svg>