<svg width="30" height="30" viewBox="0 0 30 30" fill="none" xmlns="http://www.w3.org/2000/svg">
<path d="M23.3555 9.91406C23.3027 9.78515 23.2383 9.66211 23.1504 9.55664L18.2402 4.18359C18.1289 4.06055 17.9941 3.97266 17.8477 3.89648C17.6777 3.80859 17.4902 3.77344 17.291 3.77344H7.92187C7.19531 3.77344 6.5918 4.39453 6.5918 5.17383V24.8144C6.5918 25.5996 7.19531 26.2734 7.92187 26.2734H22.166C22.8926 26.2734 23.4668 25.5996 23.4668 24.8144V10.5117C23.4668 10.3008 23.4375 10.0957 23.3555 9.91406ZM9.4043 10.4648C9.4043 10.377 9.50977 10.3418 9.60352 10.3418H13.752C13.8457 10.3418 13.916 10.377 13.916 10.4648V11.0977C13.916 11.1797 13.8516 11.2793 13.752 11.2793H9.60352C9.50977 11.2793 9.4043 11.1797 9.4043 11.0977V10.4648ZM9.4043 17.9648C9.4043 17.877 9.50977 17.8418 9.60352 17.8418H16.7637C16.8574 17.8418 16.9043 17.877 16.9043 17.9648V18.5977C16.9043 18.6797 16.8633 18.7793 16.7637 18.7793H9.60352C9.50977 18.7793 9.4043 18.6797 9.4043 18.5977V17.9648ZM18.7793 22.3477C18.7793 22.4297 18.7383 22.5293 18.6387 22.5293H9.60352C9.50977 22.5293 9.4043 22.4297 9.4043 22.3477V21.7148C9.4043 21.627 9.50977 21.5918 9.60352 21.5918H18.6387C18.7324 21.5918 18.7793 21.627 18.7793 21.7148V22.3477ZM20.6543 14.8477C20.6543 14.9297 20.6133 15.0293 20.5137 15.0293H9.60352C9.50977 15.0293 9.4043 14.9297 9.4043 14.8477V14.2148C9.4043 14.127 9.50977 14.0918 9.60352 14.0918H20.5137C20.6074 14.0918 20.6543 14.127 20.6543 14.2148V14.8477ZM17.9062 10.4004C17.5781 10.4004 17.2559 10.0957 17.2559 9.73828V5.87109L21.4277 10.4004H17.9062Z" fill="#858F98"/>
</svg>
