<svg width="24" height="24" viewBox="0 0 24 24" fill="none" xmlns="http://www.w3.org/2000/svg">
<path d="M19.2589 9.99749C19.2837 7.17762 16.88 4.59376 13.9048 4.23352C13.8427 4.22731 13.7806 4.21488 13.7123 4.20246C13.5632 4.17762 13.4142 4.15277 13.2589 4.15277C12.6502 4.15277 12.4887 4.58134 12.4452 4.836C12.4017 5.08445 12.4452 5.29563 12.5632 5.45712C12.7682 5.73041 13.1222 5.7801 13.4079 5.81737C13.4887 5.82979 13.5694 5.84221 13.6378 5.85463C16.3086 6.45091 17.2092 7.3888 17.6502 10.041C17.6626 10.1031 17.6688 10.1838 17.6688 10.2708C17.6874 10.5876 17.7309 11.2459 18.439 11.2459C18.4949 11.2459 18.5632 11.2397 18.6253 11.2335C19.2837 11.1341 19.2651 10.5317 19.2527 10.2397C19.2527 10.159 19.2464 10.0782 19.2527 10.0285C19.2589 10.0223 19.2589 10.0099 19.2589 9.99749Z" fill="#7940B5"/>
<path d="M13.0915 3.20249C13.1723 3.2087 13.2468 3.21492 13.3089 3.22113C17.694 3.89815 19.7126 5.97889 20.2779 10.4013C20.2903 10.4758 20.2903 10.569 20.2903 10.6683C20.2965 11.0162 20.3089 11.7305 21.0791 11.7491H21.1039C21.3462 11.7491 21.5387 11.6746 21.6754 11.5317C21.9176 11.2832 21.899 10.9044 21.8866 10.6062C21.8803 10.5317 21.8803 10.4634 21.8803 10.4013C21.9362 5.8733 18.017 1.77392 13.4952 1.61864C13.4766 1.61864 13.458 1.61864 13.4393 1.61864C13.4331 1.61864 13.4145 1.61864 13.3834 1.61864C13.34 1.61864 13.2841 1.61243 13.222 1.61243C13.1536 1.60622 13.0729 1.60001 12.9859 1.60001C12.2654 1.60001 12.1288 2.10932 12.1102 2.41988C12.0791 3.12796 12.7623 3.17765 13.0915 3.20249Z" fill="#7940B5"/>
<path d="M20.0604 16.1217C19.9673 16.0534 19.8679 15.9789 19.7809 15.9044C19.3027 15.5193 18.7934 15.1652 18.2965 14.8174C18.1971 14.7491 18.0915 14.6745 17.9921 14.6062C17.3586 14.1652 16.7934 13.9478 16.253 13.9478C15.5325 13.9478 14.899 14.3453 14.3772 15.1342C14.1474 15.482 13.8679 15.6559 13.5201 15.6559C13.3151 15.6559 13.0853 15.6 12.8306 15.482C10.7934 14.5565 9.33374 13.1404 8.50144 11.2646C8.09771 10.3578 8.22815 9.76771 8.93622 9.28945C9.33995 9.01616 10.0853 8.50684 10.0356 7.53168C9.97349 6.42609 7.53871 3.10311 6.50765 2.72423C6.07287 2.56274 5.61324 2.56274 5.1474 2.71802C3.96728 3.11554 3.11635 3.81119 2.69399 4.73665C2.28405 5.62485 2.30268 6.67454 2.74989 7.7615C4.02939 10.9106 5.83684 13.6497 8.10393 15.9168C10.3275 18.1342 13.0604 19.9478 16.2281 21.3143C16.5139 21.4385 16.812 21.5068 17.0294 21.5503C17.1039 21.569 17.166 21.5814 17.2157 21.5938C17.2406 21.6 17.2654 21.6062 17.2965 21.6062H17.3213C18.812 21.6062 20.6008 20.246 21.1474 18.6932C21.6505 17.3329 20.7685 16.6621 20.0604 16.1217Z" fill="#7940B5"/>
<path d="M13.7495 6.79877C13.4949 6.80498 12.9607 6.8174 12.7744 7.35777C12.6874 7.61243 12.6999 7.82982 12.8054 8.00995C12.9607 8.27703 13.2651 8.35777 13.5446 8.40125C14.5446 8.56274 15.0601 9.11554 15.1595 10.1404C15.2092 10.6186 15.5322 10.954 15.9421 10.954C15.9732 10.954 16.0042 10.954 16.0353 10.9478C16.5322 10.8857 16.7744 10.5255 16.7495 9.86088C16.7558 9.17144 16.3955 8.38883 15.7806 7.7615C15.1657 7.13417 14.4266 6.78013 13.7495 6.79877Z" fill="#7940B5"/>
</svg>
