<svg width="24" height="24" viewBox="0 0 24 24" fill="none" xmlns="http://www.w3.org/2000/svg">
<path d="M17.584 13.2134C17.5415 13.1921 15.9653 12.4173 15.6893 12.3165C15.5726 12.274 15.4505 12.2369 15.3231 12.2369C15.1108 12.2369 14.9304 12.343 14.7924 12.55C14.6332 12.7835 14.1609 13.3407 14.0123 13.5053C13.991 13.5265 13.9645 13.553 13.9486 13.553C13.9327 13.553 13.6885 13.4522 13.6195 13.4203C11.9319 12.688 10.6475 10.9207 10.4724 10.6235C10.4459 10.581 10.4459 10.5598 10.4459 10.5598C10.4512 10.5386 10.5096 10.4802 10.5361 10.4483C10.621 10.3634 10.7165 10.252 10.8068 10.1458C10.8492 10.0928 10.8917 10.045 10.9341 9.99724C11.0668 9.84334 11.1252 9.72658 11.1889 9.58859L11.226 9.5196C11.3905 9.19056 11.2526 8.9199 11.2048 8.82968C11.1676 8.75538 10.5043 7.15262 10.43 6.9828C10.2601 6.57415 10.0372 6.3884 9.72411 6.3884C9.69757 6.3884 9.72411 6.3884 9.60204 6.3937C9.45344 6.39901 8.64676 6.50515 8.29118 6.72805C7.91438 6.96687 7.27222 7.72579 7.27222 9.05788C7.27222 10.2573 8.03644 11.393 8.36018 11.8229C8.37079 11.8335 8.3814 11.8547 8.40263 11.8866C9.65511 13.7175 11.2207 15.0762 12.8022 15.7077C14.3254 16.318 15.0471 16.387 15.4611 16.387C15.6362 16.387 15.7742 16.3711 15.891 16.3605L15.9706 16.3552C16.496 16.3074 17.6529 15.7077 17.9183 14.9753C18.1253 14.3969 18.1783 13.7706 18.0404 13.5424C17.9501 13.3885 17.7856 13.3089 17.584 13.2134Z" fill="#40A86F"/>
<path d="M12.5896 0.799988C6.7411 0.799988 1.98062 5.52333 1.98062 11.3293C1.98062 13.208 2.48479 15.0443 3.43477 16.6524L1.61443 22.0285C1.58258 22.1293 1.60381 22.2408 1.67811 22.3151C1.73118 22.3681 1.80548 22.4 1.87978 22.4C1.90632 22.4 1.93816 22.3947 1.9647 22.3894L7.56902 20.6062C9.10277 21.4235 10.8382 21.8587 12.5896 21.8587C18.438 21.8587 23.1985 17.1353 23.1985 11.3293C23.1985 5.52333 18.438 0.799988 12.5896 0.799988ZM12.5896 19.6668C10.939 19.6668 9.34159 19.1892 7.96705 18.287C7.91928 18.2551 7.86621 18.2392 7.81314 18.2392C7.78661 18.2392 7.75476 18.2445 7.72823 18.2498L4.92076 19.1414L5.82828 16.4666C5.86012 16.3817 5.8442 16.2862 5.79113 16.2119C4.74563 14.7843 4.19369 13.0913 4.19369 11.324C4.19369 6.72805 7.96174 2.98652 12.5949 2.98652C17.228 2.98652 20.996 6.72805 20.996 11.324C20.9907 15.9253 17.2227 19.6668 12.5896 19.6668Z" fill="#40A86F"/>
</svg>
