<?xml version="1.0" standalone="no"?>
<!DOCTYPE svg PUBLIC "-//W3C//DTD SVG 20010904//EN"
 "http://www.w3.org/TR/2001/REC-SVG-20010904/DTD/svg10.dtd">
<svg version="1.0" xmlns="http://www.w3.org/2000/svg"
 width="2048.000000pt" height="2048.000000pt" viewBox="0 0 2048.000000 2048.000000"
 preserveAspectRatio="xMidYMid meet">
<metadata>
Created by potrace 1.14, written by Peter Selinger 2001-2017
</metadata>
<g transform="translate(0.000000,2048.000000) scale(0.100000,-0.100000)"
fill="#000000" stroke="none">
<path d="M11116 14073 c-2 -3 -28 -6 -58 -8 -68 -4 -186 -15 -218 -20 -14 -3
-38 -7 -55 -9 -16 -2 -50 -8 -75 -12 -25 -4 -52 -8 -60 -10 -56 -8 -99 -16
-125 -24 -16 -5 -46 -12 -65 -15 -19 -3 -53 -11 -75 -17 -22 -7 -47 -13 -55
-14 -20 -3 -210 -62 -235 -73 -11 -5 -58 -24 -105 -41 -138 -53 -269 -115
-410 -193 -87 -48 -253 -154 -277 -176 -12 -12 -26 -21 -31 -21 -4 0 -17 -8
-28 -18 -10 -10 -37 -31 -59 -47 -22 -17 -45 -34 -52 -40 -6 -5 -35 -30 -65
-55 -113 -95 -395 -387 -447 -464 -8 -12 -18 -23 -21 -26 -4 -3 -35 -43 -69
-90 -34 -47 -69 -93 -77 -103 -8 -9 -14 -22 -14 -27 0 -6 -4 -10 -10 -10 -5 0
-10 -5 -10 -11 0 -5 -18 -37 -40 -69 -22 -32 -40 -63 -40 -69 0 -5 -4 -11 -8
-13 -19 -8 -167 -300 -227 -448 -21 -52 -42 -99 -46 -105 -4 -5 -10 -26 -14
-45 -4 -19 -12 -41 -19 -49 -6 -8 -10 -15 -8 -15 2 -1 1 -8 -2 -16 -13 -36
-48 -151 -50 -163 -1 -6 -10 -37 -18 -67 -17 -58 -63 -261 -73 -320 -3 -19
-10 -57 -15 -85 -9 -47 -14 -78 -25 -185 -3 -25 -7 -61 -9 -80 -26 -191 -27
-872 -2 -1100 3 -25 8 -70 11 -100 3 -30 8 -66 10 -80 2 -14 7 -45 10 -70 3
-25 8 -52 10 -60 2 -8 7 -31 10 -50 3 -19 8 -46 10 -60 3 -14 7 -34 9 -45 3
-11 10 -42 16 -70 6 -27 13 -58 15 -68 26 -123 134 -446 196 -584 10 -24 29
-64 40 -90 12 -27 32 -68 44 -93 12 -25 33 -65 45 -90 12 -25 29 -53 38 -62 8
-10 12 -18 9 -18 -7 0 120 -206 160 -257 13 -18 22 -33 19 -33 -4 0 2 -9 12
-19 22 -25 32 -37 62 -81 27 -38 30 -42 86 -110 162 -199 360 -398 544 -546
94 -76 274 -204 287 -204 5 0 18 -8 29 -17 10 -10 33 -25 49 -33 17 -8 32 -17
35 -20 13 -13 215 -117 309 -158 69 -31 275 -112 296 -116 6 -2 37 -11 70 -21
33 -10 65 -20 70 -21 6 -2 35 -10 65 -18 30 -8 66 -17 80 -20 14 -3 42 -10 63
-15 20 -5 37 -7 37 -4 0 3 7 0 15 -7 8 -7 15 -10 15 -8 0 3 21 1 48 -4 26 -5
63 -11 82 -14 19 -2 44 -6 55 -8 35 -8 124 -19 270 -33 164 -15 772 -7 888 12
12 2 47 6 77 9 30 4 66 8 80 11 14 2 41 7 60 9 19 3 46 7 60 10 13 3 42 8 64
12 22 3 44 7 47 10 4 2 24 6 45 10 20 3 49 10 63 16 14 5 27 9 29 9 1 -1 3 -1
5 0 1 0 9 2 17 4 8 1 35 9 60 16 25 7 48 13 53 15 4 1 8 2 10 4 1 1 10 3 19 5
24 4 91 26 103 34 6 3 15 6 22 7 20 3 175 66 250 100 39 19 76 34 82 34 6 0
11 5 11 12 0 6 2 9 6 6 3 -3 37 12 77 33 40 22 84 44 100 50 15 6 27 15 27 20
0 5 6 9 13 9 8 0 42 18 76 40 34 22 64 40 66 40 5 0 249 164 285 192 14 11 68
51 120 90 52 40 97 74 100 77 3 3 32 29 65 56 96 80 106 89 135 115 15 14 57
52 94 84 36 33 66 62 66 65 0 3 -15 22 -33 42 -17 20 -43 49 -56 65 -13 16
-40 47 -60 70 -20 22 -56 64 -81 93 -25 29 -54 63 -65 75 -21 23 -108 124
-138 160 -9 11 -26 30 -36 41 -10 11 -62 72 -116 135 -54 63 -101 117 -104
120 -3 3 -31 34 -61 70 -30 36 -64 75 -75 87 l-21 23 -31 -28 c-17 -15 -43
-36 -57 -46 -15 -11 -35 -27 -45 -35 -10 -9 -33 -27 -52 -41 -18 -14 -41 -33
-51 -42 -10 -10 -22 -18 -27 -18 -5 0 -11 -4 -13 -8 -1 -4 -59 -50 -128 -100
-69 -51 -133 -99 -143 -107 -9 -8 -21 -15 -26 -15 -5 0 -16 -6 -24 -14 -8 -8
-63 -46 -123 -85 -60 -39 -114 -75 -121 -81 -7 -5 -19 -10 -27 -10 -8 0 -16
-4 -18 -8 -9 -23 -370 -192 -408 -192 -5 0 -21 -5 -37 -11 -15 -7 -35 -13 -43
-14 -8 -1 -42 -9 -75 -18 -33 -9 -76 -18 -95 -21 -19 -3 -44 -7 -55 -10 -118
-23 -212 -30 -435 -29 -203 0 -286 4 -362 19 -18 3 -44 7 -58 9 -67 6 -323 79
-405 115 -99 43 -247 119 -311 161 -101 66 -239 173 -259 201 -8 13 -15 19
-15 15 0 -7 -34 26 -126 124 -22 24 -58 67 -79 94 -20 28 -41 52 -45 55 -4 3
-15 20 -24 38 -9 17 -21 32 -26 32 -6 0 -10 4 -10 9 0 5 -22 45 -49 89 -76
123 -157 288 -202 412 -33 91 -50 141 -55 159 -2 9 -13 48 -24 86 -11 39 -22
79 -25 90 -2 11 -11 54 -20 95 -9 41 -18 87 -21 103 -12 75 -14 95 -19 132 -3
22 -7 56 -10 75 -2 19 -6 60 -10 90 -3 30 -8 107 -9 171 -2 65 -7 122 -10 128
-4 6 -4 11 1 11 4 0 8 20 8 45 0 25 -3 45 -7 45 -4 0 -4 10 1 23 5 14 5 30 0
40 -6 9 -6 17 -2 17 4 0 8 33 9 73 1 71 11 220 20 287 2 19 7 58 10 85 4 28
19 111 35 185 16 74 31 148 34 164 4 26 75 241 107 326 7 19 18 38 23 42 6 4
7 8 3 8 -7 0 36 93 77 170 11 19 19 38 20 42 0 4 6 13 13 20 6 6 12 18 12 25
0 7 5 13 10 13 6 0 10 5 10 10 0 9 83 139 112 175 4 6 29 37 55 70 120 152
253 278 407 387 45 32 86 61 92 65 78 58 395 197 499 219 6 1 48 11 95 22 47
11 101 23 120 26 19 3 46 8 59 10 65 14 176 19 371 19 203 0 270 -4 365 -18
22 -4 54 -9 70 -11 17 -3 46 -9 65 -14 19 -5 46 -11 60 -13 135 -24 409 -130
601 -233 88 -47 334 -202 372 -235 7 -5 37 -29 68 -52 111 -84 122 -92 140
-107 51 -42 104 -87 128 -107 14 -13 30 -22 36 -20 5 2 37 38 71 79 34 42 65
74 68 71 3 -4 6 -1 6 6 0 7 6 18 13 25 6 7 30 34 52 61 22 27 49 58 60 71 21
23 28 32 110 129 27 33 52 62 55 65 3 3 52 61 110 130 139 165 151 180 178
207 12 13 22 28 22 33 0 5 6 13 13 17 7 4 29 29 50 54 l37 46 -28 23 c-15 14
-70 60 -122 103 -52 43 -104 86 -115 96 -11 9 -38 30 -60 47 -22 16 -44 33
-50 37 -5 4 -35 26 -65 48 -30 22 -63 47 -73 55 -9 7 -20 14 -23 14 -2 0 -29
18 -59 40 -30 22 -56 40 -59 40 -3 0 -25 14 -49 30 -25 17 -49 30 -55 30 -6 0
-12 4 -14 8 -5 13 -208 124 -323 177 -146 68 -152 70 -245 105 -47 18 -94 36
-105 41 -20 8 -178 56 -212 64 -10 2 -43 11 -73 19 -30 8 -68 17 -85 20 -16 3
-41 8 -55 11 -76 17 -129 27 -160 31 -19 2 -51 7 -70 10 -64 10 -85 13 -155
19 -38 4 -90 9 -115 12 -59 6 -728 12 -734 6z"/>
<path d="M3389 14066 c-2 -2 -49 -7 -104 -11 -101 -7 -145 -11 -200 -19 -16
-2 -50 -7 -75 -10 -25 -3 -54 -7 -65 -10 -11 -2 -40 -7 -65 -11 -73 -11 -271
-56 -317 -71 -23 -7 -52 -15 -65 -18 -45 -8 -234 -75 -333 -116 -55 -23 -113
-47 -130 -54 -16 -6 -36 -15 -44 -20 -7 -5 -55 -30 -105 -55 -50 -25 -110 -59
-133 -74 -24 -15 -47 -27 -52 -27 -5 0 -16 -6 -23 -12 -23 -22 -108 -78 -117
-78 -5 0 -11 -3 -13 -7 -1 -5 -25 -24 -53 -43 -219 -151 -549 -474 -735 -719
-14 -18 -34 -45 -45 -59 -11 -15 -34 -47 -50 -72 -17 -25 -32 -47 -35 -50 -3
-3 -32 -48 -64 -100 -33 -52 -66 -106 -74 -120 -35 -56 -142 -272 -142 -285 0
-8 -4 -15 -10 -15 -5 0 -10 -7 -10 -15 0 -8 -13 -43 -29 -77 -16 -35 -44 -106
-62 -158 -18 -52 -36 -100 -41 -107 -6 -7 -7 -17 -4 -22 4 -5 2 -12 -3 -15 -5
-3 -12 -23 -17 -43 -9 -44 -8 -43 -18 -64 -4 -9 -8 -27 -10 -40 -2 -13 -6 -31
-9 -39 -9 -22 -25 -90 -32 -130 -3 -19 -10 -48 -15 -65 -5 -16 -11 -48 -14
-70 -3 -22 -5 -40 -6 -40 -2 0 -7 -26 -14 -75 -4 -25 -9 -56 -11 -70 -3 -14
-7 -50 -11 -80 -6 -54 -8 -76 -21 -215 -8 -94 -8 -729 0 -835 12 -135 16 -182
22 -230 3 -25 8 -65 11 -90 3 -25 10 -67 15 -95 5 -27 11 -66 14 -85 14 -108
94 -455 111 -481 3 -5 7 -19 9 -30 5 -23 23 -84 32 -109 4 -8 7 -17 8 -20 6
-27 39 -117 45 -125 4 -5 11 -21 15 -35 9 -32 48 -123 96 -228 22 -46 39 -87
39 -92 0 -4 3 -10 8 -12 4 -1 22 -32 41 -68 45 -88 133 -234 143 -238 4 -2 8
-8 8 -12 0 -5 15 -30 33 -56 17 -25 37 -53 42 -63 6 -9 12 -18 15 -21 3 -3 25
-32 50 -65 24 -33 51 -68 60 -78 104 -125 158 -185 261 -287 58 -58 124 -121
148 -140 24 -19 53 -43 64 -54 12 -10 56 -44 97 -75 41 -31 77 -59 78 -63 2
-5 7 -8 12 -8 5 0 49 -27 98 -60 50 -33 95 -60 101 -60 6 0 11 -3 11 -7 0 -5
24 -19 53 -33 28 -13 59 -29 67 -35 13 -10 149 -73 235 -110 83 -36 238 -92
274 -100 9 -2 48 -13 86 -25 117 -34 268 -69 370 -85 11 -2 34 -6 50 -8 230
-39 393 -51 710 -51 217 0 331 4 475 19 46 5 100 13 260 39 92 15 322 76 390
103 8 3 20 7 26 8 64 14 414 185 422 207 2 4 8 8 13 8 14 0 133 83 204 143 77
64 220 210 265 270 19 25 38 47 41 47 3 0 7 -17 8 -37 1 -21 3 -51 5 -68 2
-16 7 -61 11 -100 4 -38 9 -86 11 -105 3 -19 7 -60 9 -90 3 -30 7 -68 9 -85 2
-16 7 -64 11 -105 4 -41 11 -79 17 -85 6 -6 203 -10 553 -10 l545 0 1 30 c4
184 0 836 -5 844 -4 6 -4 11 1 11 10 0 8 133 -1 149 -4 6 -4 11 1 11 10 0 8
2053 -1 2069 -4 6 -4 11 1 11 10 0 8 133 -1 149 -4 6 -4 11 1 11 4 0 7 176 6
392 l-1 391 -99 -1 c-54 -1 -105 -2 -113 -2 -8 0 -120 1 -248 3 -127 1 -232
-2 -232 -7 0 -5 -5 -5 -12 0 -7 5 -40 8 -73 7 -83 -3 -65 -3 -323 0 -127 1
-232 -2 -232 -7 0 -5 -5 -5 -12 0 -7 5 -40 8 -73 7 -83 -3 -65 -3 -323 0 -127
1 -232 -2 -232 -7 0 -5 -5 -5 -12 0 -7 5 -40 8 -73 7 -83 -3 -65 -3 -323 0
-127 1 -232 -2 -232 -7 0 -5 -5 -5 -12 0 -7 5 -40 8 -73 7 -83 -3 -65 -3 -323
0 -127 1 -232 -2 -232 -6 0 -5 -5 -5 -12 -1 -13 8 -116 13 -135 6 -10 -3 -13
-142 -13 -611 l0 -606 1047 0 1048 0 -1 -140 c0 -128 -10 -271 -19 -285 -2 -3
-6 -26 -9 -51 -3 -24 -13 -71 -22 -104 -8 -33 -17 -67 -19 -75 -10 -46 -70
-193 -110 -268 -66 -124 -147 -232 -251 -336 -103 -103 -105 -105 -200 -171
-123 -86 -397 -215 -489 -231 -11 -2 -45 -10 -75 -19 -30 -8 -67 -17 -82 -20
-68 -12 -94 -17 -108 -20 -8 -2 -37 -6 -65 -10 -27 -3 -68 -9 -90 -11 -55 -8
-528 -8 -590 -1 -27 4 -70 9 -95 11 -25 3 -45 6 -45 6 0 1 -11 3 -25 6 -14 2
-41 7 -60 11 -19 4 -42 8 -50 9 -33 4 -284 80 -305 93 -5 3 -15 6 -21 7 -25 4
-223 106 -296 152 -339 215 -599 531 -767 935 -33 80 -88 238 -107 307 -14 53
-50 210 -58 253 -2 12 -7 38 -11 57 -3 19 -8 46 -9 60 -32 243 -34 265 -42
425 -11 238 -2 561 20 710 2 17 7 53 11 80 6 45 15 103 31 190 3 17 14 68 26
115 11 47 22 92 23 100 2 8 4 16 5 18 2 1 3 5 4 10 2 4 9 27 16 52 7 25 14 47
14 50 1 6 17 46 58 150 87 219 242 471 383 625 92 100 118 126 183 183 60 53
138 114 219 170 43 30 164 97 238 132 75 36 299 116 348 126 12 2 32 6 45 9
214 48 325 60 587 59 218 0 341 -9 458 -34 26 -5 51 -9 55 -9 4 1 9 0 12 -1 9
-3 33 -9 80 -20 25 -6 50 -12 55 -14 6 -1 30 -8 55 -15 25 -7 83 -26 130 -43
47 -16 100 -35 118 -41 17 -6 32 -14 32 -19 0 -4 6 -8 14 -8 17 0 169 -74 281
-138 92 -52 378 -241 428 -282 7 -6 41 -33 77 -60 60 -47 158 -125 200 -160
95 -79 134 -114 183 -160 l37 -34 158 162 c86 89 234 242 328 339 95 98 219
226 275 284 57 59 114 118 127 132 l23 25 -59 58 c-33 33 -101 97 -152 144
-51 47 -107 99 -125 116 -18 17 -41 37 -52 45 -11 8 -42 33 -69 56 -54 47
-154 127 -198 158 -16 11 -40 29 -55 41 -50 39 -191 134 -200 134 -5 0 -11 4
-13 8 -9 24 -314 192 -510 281 -93 43 -336 136 -378 145 -31 7 -249 67 -270
74 -8 3 -22 6 -30 8 -52 10 -89 17 -115 21 -40 7 -60 11 -60 13 0 2 -35 8 -85
15 -25 3 -63 8 -85 12 -22 3 -53 7 -70 8 -16 1 -30 3 -30 4 0 1 -25 4 -55 6
-30 3 -77 7 -105 10 -56 7 -711 16 -716 11z"/>
<path d="M15210 10240 l0 -3665 2635 0 2635 0 -2 610 -3 609 -1900 1 c-1045 0
-1905 3 -1910 7 -7 4 -10 327 -9 975 1 532 2 970 3 973 1 3 781 5 1733 5
l1733 0 2 604 c2 349 -1 607 -6 610 -5 4 -782 6 -1728 5 -945 0 -1722 1 -1728
3 -7 2 -10 296 -10 856 l0 852 1855 0 1855 1 1 602 c1 427 -2 605 -10 610 -6
3 -1166 7 -2578 7 l-2568 0 0 -3665z"/>
</g>
</svg>
